<svg width="60" height="39" viewBox="0 0 60 39" fill="none" xmlns="http://www.w3.org/2000/svg">
    <rect x="28" y="6.85742" width="32" height="32" rx="16" fill="#FBBC04"/>
    <path d="M14.4416 21.034C8.6699 11.9068 15.2282 0 26.0273 0C30.801 0 35.2309 2.48347 37.7215 6.55594L54.8549 34.5714C54.8549 34.5714 52.8549 36.5714 50.2835 37.7143C47.7121 38.8571 45.1406 38.8571 45.1406 38.8571H25.7121L14.4416 21.034Z" fill="#33B556"/>
    <path d="M0 25.4286C0 18.0122 6.04601 12 13.4624 12C18.2131 12 22.6324 14.5004 25.0639 18.5817L37.1429 38.8571H13.4286C6.01217 38.8571 0 32.845 0 25.4286Z" fill="#4285F4"/>
</svg>