<svg width="235" height="71" viewBox="0 0 235 71" fill="none" xmlns="http://www.w3.org/2000/svg">
    <path d="M0.5 62.9162L0.5 8.09335C0.5 3.89954 3.89976 0.499779 8.09358 0.499779L226.844 0.499779C231.038 0.499779 234.437 3.89954 234.437 8.09335V62.9162C234.437 67.11 231.038 70.5098 226.844 70.5098L8.09358 70.5098C3.89976 70.5098 0.5 67.11 0.5 62.9162Z" fill="white" stroke="#F8F8F8"/>
    <path d="M75.3672 54.341V36.6543H81.4945C82.284 36.6543 83.0288 36.7884 83.7289 37.0515C84.429 37.3147 85.0398 37.6871 85.5711 38.1638C86.0974 38.6405 86.5145 39.2115 86.8174 39.8818C87.1203 40.5472 87.2742 41.287 87.2742 42.0914C87.2742 42.8958 87.1203 43.6108 86.8174 44.2762C86.5145 44.9415 86.0974 45.5175 85.5711 45.9942C85.0447 46.4709 84.429 46.8433 83.7289 47.1064C83.0288 47.3696 82.284 47.5037 81.4945 47.5037H78.1577V54.346H75.3672V54.341ZM81.569 44.8323C82.0307 44.8323 82.4429 44.7528 82.8053 44.5989C83.1678 44.445 83.4707 44.2315 83.719 43.9683C83.9672 43.7051 84.1559 43.4072 84.285 43.0795C84.4191 42.7518 84.4836 42.4191 84.4836 42.0914C84.4836 41.7438 84.4191 41.4062 84.285 41.0785C84.151 40.7507 83.9623 40.4578 83.719 40.1996C83.4707 39.9463 83.1678 39.7328 82.8053 39.569C82.4429 39.4051 82.0307 39.3207 81.569 39.3207H78.1577V44.8273H81.569V44.8323Z" fill="#5F6368"/>
    <path d="M96.4729 52.8562H96.3239C95.9614 53.3329 95.4897 53.7649 94.9137 54.1522C94.3378 54.5395 93.6029 54.7332 92.7141 54.7332C92.0735 54.7332 91.4727 54.6289 90.9116 54.4253C90.3506 54.2217 89.8639 53.9337 89.4518 53.5613C89.0397 53.1889 88.7169 52.7569 88.4786 52.2505C88.2403 51.749 88.1211 51.1928 88.1211 50.5821C88.1211 49.9416 88.2502 49.3656 88.5034 48.8541C88.7567 48.3427 89.1142 47.9157 89.566 47.5681C90.0179 47.2205 90.5591 46.9524 91.1847 46.7637C91.8104 46.575 92.4857 46.4807 93.2106 46.4807C94.015 46.4807 94.6903 46.5601 95.2365 46.7141C95.7777 46.873 96.1899 47.017 96.4729 47.1461V46.6743C96.4729 46.3119 96.3934 45.9742 96.2395 45.6614C96.0806 45.3486 95.8671 45.0805 95.599 44.857C95.3308 44.6336 95.018 44.4598 94.6704 44.3406C94.3229 44.2165 93.9604 44.1569 93.583 44.1569C92.9723 44.1569 92.4261 44.2761 91.9395 44.5144C91.4529 44.7527 91.0209 45.1351 90.6435 45.6614L88.4687 44.2264C89.0447 43.4369 89.7597 42.8411 90.6187 42.4339C91.4727 42.0317 92.446 41.8281 93.5334 41.8281C95.3259 41.8281 96.7162 42.275 97.6944 43.1638C98.6725 44.0526 99.1641 45.3238 99.1641 46.9673V54.326H96.4729V52.8463V52.8562ZM96.4729 49.301C96.1104 49.0875 95.7082 48.9137 95.2613 48.7846C94.8144 48.6506 94.308 48.586 93.732 48.586C92.8779 48.586 92.1927 48.7846 91.6813 49.1769C91.1698 49.5741 90.9166 50.0508 90.9166 50.6119C90.9166 50.9098 90.9812 51.168 91.1152 51.3915C91.2493 51.6149 91.4131 51.8086 91.6217 51.9724C91.8253 52.1363 92.0686 52.2604 92.3367 52.3448C92.6098 52.4292 92.8829 52.4689 93.1659 52.4689C93.6128 52.4689 94.0349 52.3845 94.4371 52.2108C94.8393 52.037 95.1918 51.8086 95.4848 51.5206C95.7827 51.2326 96.021 50.8999 96.1998 50.5225C96.3785 50.1451 96.4729 49.743 96.4729 49.311V49.301Z" fill="#5F6368"/>
    <path d="M104.206 44.2613H104.355C104.683 43.5711 105.184 43.0349 105.85 42.6575C106.515 42.2801 107.255 42.0914 108.059 42.0914C108.323 42.0914 108.516 42.1014 108.64 42.1163C108.764 42.1312 108.894 42.156 109.023 42.1907V44.9565C108.839 44.8919 108.665 44.8472 108.491 44.8224C108.318 44.7976 108.094 44.7876 107.811 44.7876C106.773 44.7876 105.939 45.1054 105.304 45.741C104.668 46.3766 104.35 47.2107 104.35 48.2485V54.5496H101.609V42.444H104.201V44.2712L104.206 44.2613ZM112.727 44.6585H110.602V42.2354H112.727V38.5312H115.468V42.2354H118.457V44.6585H115.468V50.19C115.468 50.4929 115.503 50.7759 115.567 51.0291C115.632 51.2824 115.731 51.4959 115.865 51.6647C116.143 51.9875 116.501 52.1463 116.928 52.1463C117.191 52.1463 117.394 52.1265 117.543 52.0868C117.692 52.047 117.846 51.9825 118.01 51.903L118.849 54.3261C118.502 54.4602 118.139 54.5595 117.762 54.634C117.384 54.7085 116.952 54.7432 116.476 54.7432C115.9 54.7432 115.388 54.6489 114.946 54.4652C114.504 54.2815 114.112 54.0282 113.785 53.7104C113.074 52.9855 112.722 52.0073 112.722 50.761V44.6635L112.727 44.6585Z" fill="#5F6368"/>
    <path d="M122.994 43.8677H123.143C123.506 43.2917 124.022 42.8101 124.687 42.4227C125.353 42.0354 126.108 41.8418 126.947 41.8418C128.476 41.8418 129.623 42.2986 130.383 43.2122C131.138 44.1259 131.52 45.3424 131.52 46.8568V54.3397H128.779V47.2243C128.779 46.1716 128.536 45.4318 128.049 45.0147C127.562 44.5926 126.927 44.3841 126.132 44.3841C125.656 44.3841 125.234 44.4834 124.871 44.682C124.509 44.8806 124.196 45.1487 123.933 45.4864C123.67 45.824 123.471 46.2113 123.342 46.6483C123.208 47.0852 123.143 47.5421 123.143 48.0187V54.3446H120.402V42.239H122.994V43.8677Z" fill="#5F6368"/>
    <path d="M145.105 51.4507C144.594 52.3892 143.869 53.1737 142.93 53.7993C141.992 54.425 140.84 54.7378 139.474 54.7378C138.571 54.7378 137.732 54.5789 136.967 54.2562C136.202 53.9334 135.537 53.4865 134.981 52.9105C134.42 52.3346 133.983 51.6543 133.67 50.8747C133.357 50.0952 133.203 49.2312 133.203 48.2927C133.203 47.4188 133.352 46.5946 133.65 45.81C133.948 45.0305 134.36 44.3452 134.896 43.7593C135.433 43.1734 136.078 42.7116 136.833 42.3641C137.588 42.0165 138.432 41.8477 139.35 41.8477C140.269 41.8477 141.123 42.0066 141.858 42.3194C142.593 42.6322 143.213 43.0691 143.725 43.6302C144.236 44.1913 144.628 44.8666 144.897 45.6561C145.165 46.4456 145.304 47.3096 145.304 48.248V48.4715C145.289 48.5559 145.279 48.6304 145.279 48.6949C145.264 48.7595 145.254 48.829 145.254 48.8935H135.944C135.994 49.4695 136.133 49.971 136.366 50.3981C136.594 50.8251 136.882 51.1826 137.22 51.4606C137.558 51.7387 137.93 51.9473 138.342 52.0764C138.754 52.2104 139.157 52.275 139.554 52.275C140.343 52.275 140.994 52.0863 141.505 51.7089C142.017 51.3315 142.434 50.8598 142.766 50.2987L145.115 51.4606L145.105 51.4507ZM142.563 46.7833C142.528 46.535 142.454 46.2619 142.33 45.954C142.205 45.6511 142.017 45.3681 141.763 45.1149C141.51 44.8616 141.178 44.6432 140.775 44.4595C140.373 44.2807 139.882 44.1864 139.306 44.1864C138.516 44.1864 137.836 44.4197 137.27 44.8914C136.704 45.3632 136.316 45.9888 136.123 46.7833H142.568H142.563Z" fill="#5F6368"/>
    <path d="M147.114 42.2362H149.706V44.0634H149.855C150.004 43.7506 150.203 43.4577 150.461 43.1846C150.719 42.9115 151.002 42.6831 151.325 42.4894C151.648 42.3007 151.985 42.1418 152.338 42.0177C152.69 41.8936 153.033 41.834 153.361 41.834C153.758 41.834 154.096 41.8737 154.374 41.9482C154.652 42.0227 154.91 42.1269 155.138 42.256L154.349 44.7487C154.165 44.6643 153.967 44.6047 153.743 44.5649C153.52 44.5252 153.252 44.5054 152.939 44.5054C152.492 44.5054 152.085 44.5947 151.717 44.7785C151.345 44.9622 151.022 45.2104 150.739 45.5233C150.461 45.8361 150.243 46.2085 150.084 46.6405C149.925 47.0725 149.85 47.5243 149.85 48.006V54.3368H147.109V42.2312L147.114 42.2362Z" fill="#5F6368"/>
    <path d="M88.3144 20.2383C88.3144 22.1053 87.7633 23.5899 86.656 24.6972C85.4147 26.013 83.7761 26.6734 81.7502 26.6734C79.7243 26.6734 78.1702 26.0031 76.8245 24.6575C75.4839 23.3168 74.8086 21.6634 74.8086 19.6971C74.8086 17.7308 75.4789 16.0773 76.8245 14.7366C78.1652 13.396 79.8087 12.7207 81.7502 12.7207C82.7333 12.7207 83.6569 12.8945 84.5308 13.2421C85.3998 13.5896 86.1148 14.0812 86.6759 14.7168L85.4445 15.9482C85.0323 15.4517 84.501 15.0644 83.8506 14.7813C83.2001 14.5033 82.5 14.3593 81.7502 14.3593C80.2953 14.3593 79.0639 14.8608 78.056 15.8688C77.0629 16.8867 76.5663 18.1628 76.5663 19.6921C76.5663 21.2214 77.0629 22.4975 78.056 23.5155C79.0639 24.5234 80.2953 25.0249 81.7502 25.0249C83.0809 25.0249 84.1882 24.6525 85.072 23.9077C85.9559 23.1629 86.4624 22.1351 86.6014 20.8292H81.7502V19.2254H88.2201C88.2797 19.5729 88.3144 19.9106 88.3144 20.2333V20.2383Z" fill="#5F6368"/>
    <path d="M89.4922 21.8036C89.4922 20.3984 89.9341 19.2365 90.8179 18.3179C91.7117 17.3993 92.8389 16.9375 94.1944 16.9375C95.55 16.9375 96.6672 17.3993 97.551 18.3179C98.4448 19.2365 98.8917 20.3984 98.8917 21.8036C98.8917 23.2088 98.4448 24.3856 97.551 25.2893C96.6672 26.2079 95.55 26.6697 94.1944 26.6697C92.8389 26.6697 91.7117 26.2079 90.8179 25.2893C89.9341 24.3707 89.4922 23.2088 89.4922 21.8036ZM91.2102 21.8036C91.2102 22.7867 91.4982 23.5812 92.0692 24.1919C92.6402 24.8027 93.3503 25.1056 94.1944 25.1056C95.0385 25.1056 95.7486 24.8027 96.3196 24.1919C96.8906 23.5812 97.1786 22.7867 97.1786 21.8036C97.1786 20.8204 96.8906 20.0458 96.3196 19.4351C95.7337 18.8144 95.0286 18.5016 94.1944 18.5016C93.3602 18.5016 92.6551 18.8144 92.0692 19.4351C91.4982 20.0458 91.2102 20.8353 91.2102 21.8036Z" fill="#5F6368"/>
    <path d="M99.9336 21.8036C99.9336 20.3984 100.376 19.2365 101.259 18.3179C102.153 17.3993 103.28 16.9375 104.636 16.9375C105.991 16.9375 107.109 17.3993 107.992 18.3179C108.886 19.2365 109.333 20.3984 109.333 21.8036C109.333 23.2088 108.886 24.3856 107.992 25.2893C107.109 26.2079 105.991 26.6697 104.636 26.6697C103.28 26.6697 102.153 26.2079 101.259 25.2893C100.376 24.3707 99.9336 23.2088 99.9336 21.8036ZM101.652 21.8036C101.652 22.7867 101.94 23.5812 102.511 24.1919C103.082 24.8027 103.792 25.1056 104.636 25.1056C105.48 25.1056 106.19 24.8027 106.761 24.1919C107.332 23.5812 107.62 22.7867 107.62 21.8036C107.62 20.8204 107.332 20.0458 106.761 19.4351C106.175 18.8144 105.47 18.5016 104.636 18.5016C103.802 18.5016 103.097 18.8144 102.511 19.4351C101.94 20.0458 101.652 20.8353 101.652 21.8036Z" fill="#5F6368"/>
    <path d="M114.951 30.7016C114.44 30.7016 113.963 30.637 113.516 30.5079C113.069 30.3788 112.662 30.1951 112.294 29.9567C111.927 29.7184 111.614 29.4403 111.351 29.1176C111.088 28.7948 110.889 28.4324 110.755 28.0351L112.379 27.3648C112.568 27.9011 112.89 28.3281 113.347 28.6508C113.809 28.9736 114.34 29.1375 114.951 29.1375C115.884 29.1375 116.609 28.8594 117.131 28.2983C117.652 27.7372 117.915 26.9676 117.915 25.9844V25.1056H117.841C117.518 25.5922 117.081 25.9745 116.525 26.2526C115.974 26.5306 115.373 26.6746 114.728 26.6746C113.536 26.6746 112.508 26.2079 111.649 25.2744C110.805 24.3161 110.383 23.1591 110.383 21.8036C110.383 20.448 110.805 19.2961 111.649 18.3526C112.508 17.4092 113.531 16.9375 114.728 16.9375C115.373 16.9375 115.974 17.0765 116.525 17.3596C117.076 17.6376 117.518 18.02 117.841 18.5066H117.915V17.2404H119.559V25.9894C119.559 27.4542 119.142 28.6062 118.308 29.4403C117.463 30.2845 116.341 30.7065 114.951 30.7065V30.7016ZM115.006 25.1056C115.85 25.1056 116.54 24.8027 117.076 24.1919C117.637 23.5812 117.915 22.7867 117.915 21.8036C117.915 20.8204 117.637 20.0558 117.076 19.4351C116.53 18.8144 115.84 18.5016 115.006 18.5016C114.171 18.5016 113.496 18.8144 112.935 19.4351C112.374 20.0558 112.096 20.8453 112.096 21.8036C112.096 22.7619 112.374 23.5613 112.935 24.1721C113.496 24.7927 114.186 25.1056 115.006 25.1056Z" fill="#5F6368"/>
    <path d="M123.359 13.0195V26.3715H121.641V13.0195H123.359Z" fill="#5F6368"/>
    <path d="M129.456 26.6736C128.115 26.6736 127.008 26.2118 126.134 25.2932C125.265 24.3746 124.828 23.2127 124.828 21.8075C124.828 20.4023 125.25 19.2553 126.094 18.3317C126.938 17.4032 128.021 16.9414 129.342 16.9414C130.662 16.9414 131.775 17.3784 132.579 18.2572C133.379 19.1361 133.781 20.3626 133.781 21.9416L133.761 22.1302H126.581C126.606 23.024 126.904 23.749 127.475 24.2951C128.046 24.8413 128.731 25.1144 129.525 25.1144C130.618 25.1144 131.477 24.5682 132.097 23.4709L133.627 24.2157C133.215 24.9853 132.649 25.5911 131.919 26.0231C131.194 26.4601 130.37 26.6736 129.446 26.6736H129.456ZM126.715 20.7052H131.953C131.904 20.0696 131.646 19.5482 131.179 19.1311C130.712 18.714 130.086 18.5055 129.307 18.5055C128.661 18.5055 128.105 18.7041 127.639 19.1014C127.172 19.4986 126.864 20.0348 126.715 20.7052Z" fill="#5F6368"/>
    <path d="M145.663 26.6734C143.687 26.6734 142.034 26.0081 140.703 24.6774C139.387 23.3466 138.727 21.6882 138.727 19.6971C138.727 17.7059 139.387 16.0525 140.703 14.7366C142.019 13.396 143.672 12.7207 145.663 12.7207C147.654 12.7207 149.313 13.4456 150.569 14.9005L149.338 16.0922C148.379 14.9353 147.158 14.3593 145.663 14.3593C144.169 14.3593 142.947 14.8558 141.954 15.8489C140.971 16.832 140.479 18.1131 140.479 19.6921C140.479 21.2711 140.971 22.5522 141.954 23.5353C142.947 24.5284 144.184 25.0249 145.663 25.0249C147.217 25.0249 148.568 24.3745 149.71 23.0686L150.961 24.2801C150.326 25.0398 149.551 25.6257 148.632 26.0428C147.714 26.4599 146.726 26.6685 145.668 26.6685L145.663 26.6734Z" fill="#5F6368"/>
    <path d="M154.202 13.0195V26.3715H152.484V13.0195H154.202Z" fill="#5F6368"/>
    <path d="M155.68 21.8036C155.68 20.3984 156.122 19.2365 157.005 18.3179C157.899 17.3993 159.026 16.9375 160.382 16.9375C161.737 16.9375 162.855 17.3993 163.739 18.3179C164.632 19.2365 165.079 20.3984 165.079 21.8036C165.079 23.2088 164.632 24.3856 163.739 25.2893C162.855 26.2079 161.737 26.6697 160.382 26.6697C159.026 26.6697 157.899 26.2079 157.005 25.2893C156.122 24.3707 155.68 23.2088 155.68 21.8036ZM157.398 21.8036C157.398 22.7867 157.686 23.5812 158.257 24.1919C158.828 24.8027 159.538 25.1056 160.382 25.1056C161.226 25.1056 161.936 24.8027 162.507 24.1919C163.078 23.5812 163.366 22.7867 163.366 21.8036C163.366 20.8204 163.078 20.0458 162.507 19.4351C161.921 18.8144 161.216 18.5016 160.382 18.5016C159.548 18.5016 158.843 18.8144 158.257 19.4351C157.686 20.0458 157.398 20.8353 157.398 21.8036Z" fill="#5F6368"/>
    <path d="M174.57 26.3746H172.927V25.1084H172.852C172.589 25.5553 172.192 25.9277 171.651 26.2256C171.109 26.5236 170.548 26.6725 169.962 26.6725C168.845 26.6725 167.981 26.3547 167.38 25.7142C166.779 25.0737 166.477 24.165 166.477 22.9832V17.2383H168.195V22.869C168.234 24.3586 168.984 25.1084 170.449 25.1084C171.134 25.1084 171.705 24.8304 172.167 24.2792C172.629 23.728 172.857 23.0627 172.857 22.293V17.2383H174.575V26.3746H174.57Z" fill="#5F6368"/>
    <path d="M180.388 26.6733C179.196 26.6733 178.168 26.2016 177.309 25.2582C176.465 24.2998 176.043 23.1528 176.043 21.8072C176.043 20.4616 176.465 19.3146 177.309 18.3563C178.168 17.4128 179.191 16.9411 180.388 16.9411C181.058 16.9411 181.669 17.0851 182.225 17.3682C182.776 17.6561 183.203 18.0335 183.501 18.5052H183.575L183.501 17.2391V13.0234H185.219V26.3754H183.575V25.1092H183.501C183.203 25.5809 182.776 25.9632 182.225 26.2463C181.674 26.5293 181.058 26.6733 180.388 26.6733ZM180.666 25.1042C181.51 25.1042 182.2 24.8013 182.736 24.1906C183.297 23.5799 183.575 22.7854 183.575 21.8022C183.575 20.8191 183.297 20.0544 182.736 19.4338C182.19 18.8131 181.5 18.5003 180.666 18.5003C179.832 18.5003 179.156 18.8131 178.595 19.4338C178.034 20.0544 177.756 20.8439 177.756 21.8022C177.756 22.7606 178.034 23.56 178.595 24.1707C179.156 24.7914 179.846 25.1042 180.666 25.1042Z" fill="#5F6368"/>
    <path d="M41.4281 27.245L42.9276 27.2748L46.9943 23.2082L47.1929 21.4852C43.9604 18.6102 39.7051 16.8574 35.0475 16.8574C26.6163 16.8574 19.5009 22.5924 17.3906 30.3682C17.8375 30.0604 18.7809 30.2888 18.7809 30.2888L26.9142 28.9531C26.9142 28.9531 27.3363 28.2629 27.5448 28.3026C29.4069 26.2668 32.0782 24.9858 35.0475 24.9858C37.4607 24.9858 39.6802 25.8348 41.4281 27.245Z" fill="#EA4335"/>
    <path d="M52.7032 30.3745C51.7598 26.8888 49.8084 23.8153 47.1867 21.4766L41.4219 27.2414C43.7308 29.1084 45.2105 31.9585 45.2105 35.1463V36.1642C48.0109 36.1642 50.29 38.4433 50.29 41.2438C50.29 44.0442 48.0109 46.3234 45.2055 46.3234H35.0413L34.0234 47.3462V53.4437L35.0413 54.4567H45.2055C52.4897 54.4567 58.4184 48.528 58.4184 41.2438C58.4184 36.7402 56.1492 32.7579 52.6983 30.3696L52.7032 30.3745Z" fill="#4285F4"/>
    <path d="M24.8838 54.4554H35.0381V46.322H24.8838C24.139 46.322 23.429 46.1582 22.7884 45.8652L21.3237 46.3121L17.252 50.3837L16.8945 51.7591C19.1141 53.4474 21.8798 54.4554 24.8789 54.4554H24.8838Z" fill="#34A853"/>
    <path d="M24.8848 28.0293C17.6005 28.0293 11.6719 33.958 11.6719 41.2422C11.6719 45.5323 13.7275 49.3507 16.9054 51.7638L22.7993 45.8699C21.0366 45.0705 19.8052 43.2979 19.8052 41.2422C19.8052 38.4417 22.0843 36.1626 24.8848 36.1626C26.9454 36.1626 28.718 37.394 29.5125 39.1567L35.4064 33.2628C32.9932 30.085 29.1749 28.0293 24.8848 28.0293Z" fill="#FBBC05"/>
</svg>