<svg width="166" height="38" viewBox="0 0 166 38" fill="none" xmlns="http://www.w3.org/2000/svg">
<path d="M72.928 28.1958C72.928 28.3301 72.928 28.3973 72.8608 28.4645C72.7936 28.5316 72.6593 28.5988 72.525 28.666C72.3906 28.7331 72.1891 28.7331 71.9205 28.8003C71.6518 28.8003 71.316 28.8675 70.9129 28.8675C70.5099 28.8675 70.1741 28.8675 69.9054 28.8003C69.6368 28.8003 69.4353 28.7331 69.3009 28.666C69.1666 28.5988 69.0323 28.5316 68.9651 28.4645C68.8979 28.3973 68.8979 28.263 68.8979 28.1958V19.6655C68.8979 19.1954 68.8308 18.7252 68.7636 18.3222C68.6964 17.9192 68.5621 17.5833 68.3606 17.3147C68.1591 17.046 67.9576 16.7773 67.6217 16.643C67.3531 16.5087 67.0172 16.4415 66.6142 16.4415C66.1441 16.4415 65.6067 16.643 65.1365 16.9788C64.6664 17.3818 64.129 17.9192 63.5245 18.658V28.263C63.5245 28.3973 63.5245 28.4645 63.4574 28.5316C63.3902 28.5988 63.2559 28.666 63.1215 28.7331C62.9872 28.8003 62.7857 28.8003 62.517 28.8675C62.2483 28.8675 61.9125 28.9346 61.5767 28.9346C61.1737 28.9346 60.8378 28.9346 60.5692 28.8675C60.3005 28.8675 60.099 28.8003 59.9647 28.7331C59.8303 28.666 59.696 28.5988 59.6288 28.5316C59.5616 28.4645 59.5616 28.3301 59.5616 28.263V19.6655C59.5616 19.1954 59.4945 18.7252 59.4273 18.3222C59.3601 17.9192 59.2258 17.5833 59.0243 17.3147C58.8228 17.046 58.6213 16.7773 58.2855 16.643C58.0168 16.5087 57.681 16.4415 57.278 16.4415C56.8078 16.4415 56.2704 16.643 55.8003 16.9788C55.3301 17.3818 54.7928 17.9192 54.1883 18.658V28.263C54.1883 28.3973 54.1882 28.4645 54.1211 28.5316C54.0539 28.5988 53.9196 28.666 53.7852 28.7331C53.6509 28.8003 53.4494 28.8003 53.1807 28.8675C52.9121 28.8675 52.5762 28.9346 52.1732 28.9346C51.7702 28.9346 51.4344 28.9346 51.1657 28.8675C50.897 28.8675 50.6955 28.8003 50.5612 28.7331C50.4269 28.666 50.2925 28.5988 50.2254 28.5316C50.1582 28.4645 50.1582 28.3301 50.1582 28.263V13.7548C50.1582 13.6205 50.1582 13.5533 50.2254 13.4861C50.2925 13.419 50.3597 13.3518 50.494 13.2846C50.6284 13.2175 50.8299 13.2175 51.0314 13.1503C51.2329 13.1503 51.5016 13.0831 51.8374 13.0831C52.1732 13.0831 52.4419 13.0831 52.7106 13.1503C52.9121 13.1503 53.1136 13.2175 53.2479 13.2846C53.3822 13.3518 53.4494 13.419 53.5166 13.4861C53.5837 13.5533 53.5837 13.6876 53.5837 13.7548V15.434C54.3898 14.5608 55.1958 13.9563 55.9346 13.4861C56.7406 13.0831 57.5466 12.8145 58.4198 12.8145C59.0243 12.8145 59.5616 12.8816 60.0318 13.016C60.502 13.1503 60.905 13.2846 61.308 13.5533C61.711 13.7548 61.9797 14.0906 62.2483 14.3593C62.517 14.6951 62.7185 15.031 62.92 15.434C63.323 14.9638 63.7932 14.5608 64.1962 14.225C64.5992 13.8891 65.0022 13.6205 65.4052 13.419C65.8082 13.2175 66.2112 13.0831 66.6142 12.9488C67.0172 12.8145 67.4202 12.8145 67.8233 12.8145C68.7636 12.8145 69.5696 12.9488 70.2413 13.2846C70.9129 13.6205 71.4503 14.0235 71.8533 14.628C72.2563 15.1653 72.525 15.837 72.7265 16.5758C72.928 17.3147 72.9951 18.1207 72.9951 18.9267V28.1958H72.928Z" fill="#454444"/>
<path d="M87.839 25.9121V26.5838C87.839 26.7853 87.7719 26.9196 87.7719 27.054C87.7719 27.1883 87.7047 27.2555 87.7047 27.3898C87.6375 27.457 87.5704 27.5913 87.436 27.7256C87.3017 27.86 87.1002 27.9943 86.7644 28.1958C86.4285 28.3973 86.0927 28.5316 85.6897 28.666C85.2867 28.8003 84.8837 28.9346 84.4135 29.0018C83.9433 29.069 83.4732 29.1361 82.9358 29.1361C81.794 29.1361 80.8536 28.9346 79.9805 28.5988C79.1073 28.263 78.4356 27.7256 77.8311 27.054C77.2266 26.3823 76.8236 25.5763 76.4877 24.5688C76.2191 23.6284 76.0176 22.4866 76.0176 21.2104C76.0176 19.7999 76.2191 18.5237 76.5549 17.449C76.8908 16.3743 77.4281 15.5012 78.0326 14.8295C78.7043 14.1578 79.4431 13.6205 80.3163 13.2846C81.1895 12.9488 82.197 12.8145 83.2045 12.8145C83.6075 12.8145 84.0777 12.8816 84.4807 12.9488C84.8837 13.016 85.2867 13.1503 85.6225 13.2846C85.9584 13.419 86.2942 13.5533 86.5629 13.6876C86.8315 13.822 87.033 13.9563 87.1674 14.0906C87.3017 14.225 87.3689 14.2921 87.436 14.3593C87.5032 14.4265 87.5032 14.5608 87.5704 14.6951C87.5704 14.8295 87.6376 14.9638 87.6376 15.1653V15.837C87.6376 16.4415 87.5704 16.9117 87.5032 17.1803C87.3689 17.449 87.2345 17.5833 87.1002 17.5833C86.8987 17.5833 86.6972 17.5162 86.4957 17.3818C86.2942 17.2475 86.0255 17.046 85.7569 16.9117C85.4882 16.7102 85.1524 16.5758 84.7493 16.4415C84.3463 16.3072 83.8762 16.24 83.3388 16.24C82.2641 16.24 81.4581 16.643 80.9208 17.449C80.3835 18.255 80.0476 19.464 80.0476 21.0089C80.0476 21.8149 80.1148 22.4866 80.2491 23.0911C80.3835 23.6956 80.585 24.1658 80.8536 24.5688C81.1223 24.9718 81.4581 25.2404 81.8611 25.4419C82.2642 25.6434 82.7343 25.7106 83.3388 25.7106C83.8762 25.7106 84.4135 25.6434 84.8165 25.4419C85.2195 25.3076 85.5554 25.1061 85.8912 24.9046C86.1599 24.7031 86.4285 24.5016 86.63 24.3673C86.8315 24.2329 87.033 24.0986 87.1674 24.0986C87.2345 24.0986 87.3689 24.0986 87.436 24.1658C87.5032 24.2329 87.5704 24.3001 87.5704 24.4344C87.6375 24.5688 87.6376 24.7703 87.6376 24.9718C87.8391 25.2404 87.839 25.5763 87.839 25.9121Z" fill="#0065B1"/>
<path d="M105.504 25.5759V26.2475C105.504 26.449 105.437 26.5834 105.437 26.7177C105.437 26.852 105.37 26.9864 105.302 27.0535C105.235 27.1207 105.168 27.255 105.034 27.3894C104.899 27.5237 104.698 27.6581 104.362 27.8596C104.026 28.0611 103.623 28.2626 103.086 28.3969C102.616 28.5984 102.011 28.7327 101.407 28.8671C100.802 29.0014 100.063 29.0686 99.3917 29.0686C97.9812 29.0686 96.6379 28.8671 95.496 28.3969C94.3542 27.9267 93.3466 27.3222 92.5406 26.449C91.7346 25.5759 91.1301 24.5012 90.66 23.1578C90.257 21.8145 89.9883 20.3368 89.9883 18.5904C89.9883 16.8441 90.2569 15.2321 90.7271 13.8887C91.1973 12.4782 91.869 11.3364 92.7421 10.396C93.6153 9.45567 94.6228 8.71683 95.8318 8.24665C97.0409 7.77648 98.317 7.50781 99.7947 7.50781C100.399 7.50781 100.937 7.57498 101.474 7.64215C102.011 7.70932 102.481 7.84365 102.952 8.04515C103.422 8.17949 103.825 8.38099 104.161 8.58249C104.496 8.78399 104.765 8.9855 104.899 9.11983C105.034 9.25417 105.168 9.3885 105.168 9.45567C105.235 9.52284 105.235 9.65717 105.302 9.85867C105.302 9.99301 105.37 10.1945 105.37 10.396V11.1349V11.9409C105.37 11.9409 105.302 12.3439 105.235 12.4782C105.168 12.6125 105.101 12.7469 105.034 12.814C104.967 12.8812 104.899 12.8812 104.765 12.8812C104.631 12.8812 104.429 12.814 104.161 12.6125C103.892 12.411 103.623 12.2095 103.22 12.008C102.817 11.8065 102.347 11.5379 101.81 11.4035C101.272 11.202 100.601 11.1349 99.8619 11.1349C99.0559 11.1349 98.317 11.3364 97.6454 11.6722C96.9737 12.008 96.4364 12.4782 95.9662 13.1499C95.496 13.7544 95.1602 14.5604 94.8915 15.4336C94.6228 16.3068 94.5557 17.3143 94.5557 18.4561C94.5557 19.6651 94.69 20.7398 94.9587 21.6801C95.2273 22.5533 95.5632 23.2922 96.0334 23.8967C96.5035 24.5012 97.0409 24.9042 97.7125 25.1729C98.3842 25.4415 99.123 25.5759 99.9291 25.5759C100.668 25.5759 101.34 25.5087 101.877 25.3072C102.414 25.1057 102.884 24.9042 103.287 24.7027C103.69 24.5012 104.026 24.2997 104.228 24.0982C104.496 23.8967 104.698 23.8295 104.832 23.8295C104.967 23.8295 105.034 23.8295 105.101 23.8967C105.168 23.9638 105.235 24.031 105.235 24.1653C105.302 24.2997 105.302 24.5012 105.302 24.7027C105.504 24.9042 105.504 25.1729 105.504 25.5759Z" fill="#0065B1"/>
<path d="M112.421 28.1935C112.421 28.3278 112.421 28.395 112.354 28.4621C112.286 28.5293 112.152 28.5965 112.018 28.6636C111.883 28.7308 111.682 28.7308 111.413 28.798C111.144 28.798 110.809 28.8651 110.406 28.8651C110.003 28.8651 109.667 28.8651 109.398 28.798C109.129 28.798 108.928 28.7308 108.794 28.6636C108.659 28.5965 108.525 28.5293 108.458 28.4621C108.391 28.395 108.391 28.2606 108.391 28.1935V6.96855C108.391 6.83421 108.391 6.76705 108.458 6.69988C108.525 6.63271 108.659 6.56554 108.794 6.49838C108.928 6.43121 109.129 6.36404 109.398 6.36404C109.667 6.36404 110.003 6.29688 110.406 6.29688C110.809 6.29688 111.144 6.29687 111.413 6.36404C111.682 6.36404 111.883 6.43121 112.018 6.49838C112.152 6.56554 112.286 6.63271 112.354 6.69988C112.421 6.76705 112.421 6.90138 112.421 6.96855V28.1935Z" fill="#454444"/>
<path d="M131.025 20.8718C131.025 22.0809 130.891 23.2227 130.555 24.2302C130.219 25.2377 129.749 26.1109 129.078 26.8497C128.406 27.5886 127.6 28.1259 126.592 28.5289C125.585 28.9319 124.443 29.1334 123.1 29.1334C121.823 29.1334 120.682 28.9319 119.741 28.5961C118.801 28.2603 117.995 27.7229 117.39 27.0512C116.786 26.3796 116.316 25.5064 115.98 24.566C115.711 23.5585 115.51 22.4167 115.51 21.1405C115.51 19.9315 115.644 18.7896 115.98 17.7821C116.316 16.7746 116.786 15.9014 117.458 15.1626C118.129 14.4238 118.935 13.8864 119.943 13.4834C120.95 13.0804 122.092 12.8789 123.436 12.8789C124.712 12.8789 125.854 13.0804 126.794 13.4162C127.734 13.7521 128.54 14.2894 129.145 14.9611C129.749 15.6328 130.219 16.5059 130.555 17.4463C130.891 18.4538 131.025 19.5957 131.025 20.8718ZM126.861 21.0062C126.861 20.2673 126.794 19.6628 126.66 19.0583C126.525 18.4538 126.324 17.9165 126.055 17.5135C125.786 17.0433 125.451 16.7075 124.98 16.506C124.51 16.2373 123.973 16.1029 123.301 16.1029C122.697 16.1029 122.159 16.2373 121.689 16.4388C121.219 16.6403 120.883 16.9761 120.547 17.3791C120.279 17.7821 120.01 18.3195 119.876 18.924C119.741 19.5285 119.674 20.2002 119.674 20.939C119.674 21.6778 119.741 22.2824 119.876 22.8869C120.01 23.4914 120.211 24.0287 120.48 24.4317C120.749 24.9019 121.085 25.2377 121.555 25.4392C122.025 25.7079 122.562 25.7751 123.234 25.7751C123.839 25.7751 124.376 25.6407 124.846 25.4392C125.316 25.2377 125.652 24.9019 125.988 24.4989C126.257 24.0959 126.525 23.5585 126.66 22.954C126.794 22.4839 126.861 21.745 126.861 21.0062Z" fill="#454444"/>
<path d="M147.885 28.1928C147.885 28.3271 147.885 28.3943 147.818 28.4614C147.751 28.5286 147.683 28.5958 147.549 28.6629C147.415 28.7301 147.213 28.7301 147.012 28.7973C146.81 28.7973 146.542 28.8644 146.206 28.8644C145.87 28.8644 145.534 28.8644 145.333 28.7973C145.131 28.7973 144.93 28.7301 144.795 28.6629C144.661 28.5958 144.594 28.5286 144.527 28.4614C144.459 28.3943 144.459 28.2599 144.459 28.1928V26.5136C143.653 27.3868 142.847 27.9913 142.041 28.4614C141.235 28.8644 140.362 29.1331 139.489 29.1331C138.482 29.1331 137.676 28.9988 137.004 28.6629C136.332 28.3271 135.795 27.9241 135.392 27.3196C134.989 26.7822 134.653 26.1106 134.519 25.3717C134.317 24.6329 134.25 23.6925 134.25 22.6179V13.7518C134.25 13.6174 134.25 13.5503 134.317 13.4831C134.384 13.4159 134.452 13.3487 134.653 13.2816C134.787 13.2144 134.989 13.2144 135.258 13.1472C135.526 13.1472 135.862 13.0801 136.265 13.0801C136.668 13.0801 137.004 13.0801 137.273 13.1472C137.541 13.1472 137.743 13.2144 137.877 13.2816C138.011 13.3487 138.146 13.4159 138.213 13.4831C138.28 13.5503 138.28 13.6846 138.28 13.7518V21.879C138.28 22.6179 138.347 23.2224 138.414 23.6254C138.482 24.0284 138.683 24.3642 138.885 24.6329C139.086 24.9016 139.355 25.1702 139.623 25.3046C139.959 25.4389 140.295 25.5061 140.698 25.5061C141.235 25.5061 141.706 25.3046 142.243 24.9687C142.78 24.5657 143.318 24.0284 143.922 23.2895V13.7518C143.922 13.6174 143.922 13.5503 143.989 13.4831C144.056 13.4159 144.124 13.3487 144.325 13.2816C144.459 13.2144 144.661 13.2144 144.93 13.1472C145.198 13.1472 145.534 13.0801 145.937 13.0801C146.34 13.0801 146.676 13.0801 146.945 13.1472C147.213 13.1472 147.415 13.2144 147.549 13.2816C147.683 13.3487 147.818 13.4159 147.885 13.4831C147.952 13.5503 147.952 13.6846 147.952 13.7518V28.1928H147.885Z" fill="#454444"/>
<path d="M165.685 28.1935C165.685 28.3278 165.685 28.395 165.618 28.4621C165.55 28.5293 165.483 28.5965 165.349 28.6636C165.215 28.7308 165.013 28.7308 164.812 28.798C164.61 28.798 164.341 28.798 164.006 28.798C163.67 28.798 163.401 28.798 163.132 28.798C162.931 28.798 162.729 28.7308 162.595 28.6636C162.461 28.5965 162.393 28.5293 162.326 28.4621C162.259 28.395 162.259 28.2606 162.259 28.1935V26.5815C161.52 27.3875 160.714 27.992 159.908 28.4621C159.102 28.9323 158.162 29.1338 157.222 29.1338C156.147 29.1338 155.207 28.9323 154.401 28.4621C153.662 28.0591 152.99 27.4546 152.52 26.7158C152.05 25.9769 151.714 25.1709 151.445 24.1634C151.244 23.2231 151.109 22.2156 151.109 21.1409C151.109 19.8647 151.244 18.7229 151.512 17.7153C151.781 16.7078 152.184 15.8347 152.721 15.0958C153.259 14.357 153.93 13.8196 154.669 13.4166C155.475 13.0136 156.348 12.8121 157.356 12.8121C158.162 12.8121 158.901 12.9465 159.572 13.2823C160.244 13.6181 160.849 14.0883 161.52 14.76V6.96855C161.52 6.83421 161.52 6.76705 161.588 6.69988C161.655 6.63271 161.722 6.56554 161.923 6.49838C162.058 6.43121 162.259 6.36404 162.528 6.36404C162.797 6.36404 163.132 6.29688 163.535 6.29688C163.938 6.29688 164.274 6.29687 164.543 6.36404C164.812 6.36404 165.013 6.43121 165.147 6.49838C165.282 6.56554 165.416 6.63271 165.483 6.69988C165.55 6.76705 165.55 6.90138 165.55 6.96855V28.1935H165.685ZM161.655 18.5885C161.05 17.8497 160.513 17.3123 159.975 16.9093C159.438 16.5063 158.901 16.3048 158.296 16.3048C157.759 16.3048 157.289 16.4392 156.953 16.7078C156.55 16.9765 156.281 17.3123 156.013 17.7825C155.811 18.2527 155.61 18.7229 155.475 19.2602C155.341 19.7975 155.274 20.3349 155.274 20.9394C155.274 21.5439 155.341 22.1484 155.408 22.6857C155.475 23.2902 155.677 23.7604 155.878 24.2306C156.08 24.7008 156.416 25.0366 156.751 25.3053C157.087 25.5739 157.557 25.7083 158.162 25.7083C158.431 25.7083 158.699 25.6411 158.968 25.5739C159.237 25.5068 159.505 25.3724 159.774 25.1709C160.043 24.9694 160.311 24.7679 160.647 24.4321C160.916 24.1634 161.252 23.7604 161.588 23.3574V18.5885H161.655Z" fill="#454444"/>
<path d="M22.4843 26.7327C21.2753 25.5236 19.5961 24.852 17.8498 24.9863C16.3049 25.0535 14.8944 25.7923 13.8197 26.867L9.72249 30.9642L15.7004 36.9421C17.1109 38.3526 19.4618 38.3526 20.8723 36.9421L26.8502 30.9642L22.4843 26.7327ZM16.7079 19.8144C16.7079 20.2846 16.7079 20.7548 16.6407 21.1578C17.7154 20.9563 18.7901 20.9563 19.8648 21.1578C19.7976 20.6876 19.7976 20.2846 19.7976 19.8144C19.7976 17.1949 20.8051 14.7097 22.6858 12.829C24.2307 11.2841 26.1785 10.2766 28.3279 10.008L18.1856 0L8.17764 10.0751C10.2598 10.3438 12.2749 11.2841 13.8197 12.8962C15.7004 14.7097 16.7079 17.1949 16.7079 19.8144ZM35.3805 22.3668L29.4697 28.2775L25.4397 24.2475C24.4993 23.3071 23.8277 22.1653 23.6262 20.8891C23.2903 18.9412 23.962 17.0605 25.3053 15.7172C26.4472 14.5753 27.9249 13.9708 29.5369 13.9708C30.7459 13.9708 31.8878 14.3067 32.8953 14.9783C33.1639 15.1798 33.4326 15.3814 33.7013 15.65C33.7013 15.65 34.6416 16.5904 34.9775 16.9262C35.6491 17.5979 36.1865 18.3367 36.3208 19.2771C36.4551 20.0831 36.3208 20.9563 35.9178 21.6951C35.7835 21.8966 35.582 22.1653 35.3805 22.3668ZM0.45338 21.6279C0.0503747 20.8891 -0.0839592 20.0159 0.0503758 19.2099C0.184711 18.2696 0.789218 17.5307 1.39373 16.859C1.79673 16.456 2.66991 15.5829 2.66991 15.5829C2.93858 15.3142 3.20725 15.1127 3.47592 14.9112C4.48343 14.2395 5.62527 13.9037 6.83429 13.9037C8.44631 13.9037 9.92399 14.5082 11.0658 15.65C12.4092 16.9934 13.0137 18.8741 12.745 20.8219C12.5435 22.0981 11.8719 23.3071 10.9315 24.1803L6.90146 28.2103L1.05789 22.3668C0.789218 22.1653 0.587715 21.8966 0.45338 21.6279Z" fill="url(#paint0_linear_10114_1047)"/>
<defs>
<linearGradient id="paint0_linear_10114_1047" x1="18.202" y1="4.0009" x2="18.202" y2="36.7726" gradientUnits="userSpaceOnUse">
<stop offset="6.6e-07" stop-color="#A1DAF8"/>
<stop offset="0.3166" stop-color="#6DCAF3"/>
<stop offset="0.7807" stop-color="#0A74BB"/>
<stop offset="1" stop-color="#004F9F"/>
</linearGradient>
</defs>
</svg>
