<svg fill="none" height="175" viewBox="0 0 547 175" width="547" xmlns="http://www.w3.org/2000/svg" xmlns:xlink="http://www.w3.org/1999/xlink"><clipPath id="a"><path d="m.802734 0h546.197v70h-546.197z"/></clipPath><mask id="b" height="70" maskUnits="userSpaceOnUse" width="548" x="0" y="0"><path d="m547.127 0h-546.328172v70h546.328172z" fill="#fff"/></mask><mask id="c" height="70" maskUnits="userSpaceOnUse" width="548" x="0" y="0"><path d="m547.127 0h-546.328172v70h546.328172z" fill="#fff"/></mask><g fill="#fff"><rect height="64.555" rx="8.60733" width="64.555" x="83" y="110"/><rect height="64.555" rx="8.60733" width="64.555" x="161.9" y="110"/><rect height="64.555" rx="8.60733" width="64.555" x="240.801" y="110"/><rect height="64.555" rx="8.60733" width="64.555" x="319.701" y="110"/><rect height="64.555" rx="8.60733" width="64.555" x="398.602" y="110"/></g><path d="m433.533 141.99 3.671 4.196 4.936 3.155.861-7.323-.861-7.161-5.031 2.772z" fill="#00832d"/><path d="m412.23 148.656v6.24c0 1.427 1.156 2.582 2.583 2.582h6.24l1.291-4.716-1.291-4.106-4.282-1.291z" fill="#0066da"/><path d="m421.053 126.496-8.823 8.822 4.541 1.291 4.282-1.291 1.269-4.051z" fill="#e94235"/><path d="m421.053 135.322h-8.823v13.341h8.823z" fill="#2684fc"/><path d="m447.769 130.231-5.635 4.624v14.483l5.659 4.642c.848.662 2.087.058 2.087-1.018v-21.733c0-1.091-1.267-1.689-2.111-.998zm-14.242 11.757v6.67h-12.48v8.822h18.505c1.426 0 2.582-1.155 2.582-2.582v-5.56z" fill="#00ac47"/><path d="m439.552 126.496h-18.505v8.822h12.48v6.671l8.607-7.133v-5.778c0-1.426-1.156-2.582-2.582-2.582z" fill="#ffba00"/><path d="m347.819 152.031h-9.467v6.886c0 1.426 1.155 2.582 2.582 2.582h6.885z" fill="#00832d"/><path d="m347.819 123.627h-6.885c-1.427 0-2.582 1.155-2.582 2.582v25.821h9.467v-18.935h8.607v-9.468z" fill="#ffba00"/><path d="m365.893 152.031h-9.467v9.468h6.885c1.427 0 2.582-1.156 2.582-2.582z" fill="#0066da"/><path d="m356.419 152.031h-8.607v9.468h8.607z" fill="#00ac47"/><path d="m356.426 133.1v18.935h9.467v-18.935z" fill="#2684fc"/><path d="m356.426 123.627v9.468h9.467z" fill="#ea4335"/><path d="m356.419 133.1h-8.607v18.935h8.607z" fill="#fff"/><path d="m99.211 156.341h6.025v-14.632l-8.6071-6.455v18.505c0 1.426 1.1555 2.582 2.5821 2.582z" fill="#4285f4"/><path d="m125.9 156.341h6.025c1.427 0 2.582-1.156 2.582-2.582v-18.505l-8.607 6.455z" fill="#34a853"/><path d="m125.9 130.521v11.189l8.607-6.455v-3.443c0-3.191-3.643-5.014-6.197-3.099z" fill="#fbbc04"/><path clip-rule="evenodd" d="m105.244 141.712v-11.189l10.328 7.747 10.329-7.747v11.189l-10.329 7.747z" fill="#ea4335" fill-rule="evenodd"/><path d="m96.6289 131.812v3.443l8.6071 6.455v-11.189l-2.41-1.808c-2.554-1.915-6.1971-.092-6.1971 3.099z" fill="#c5221f"/><path d="m202.644 133.529h-17.214v17.214h17.214z" fill="#fff"/><path d="m188.959 146.881c-.643-.434-1.089-1.069-1.332-1.908l1.493-.616c.136.517.373.917.71 1.201.336.284.745.424 1.223.424.488 0 .908-.148 1.258-.445.351-.297.527-.676.527-1.134 0-.469-.185-.852-.555-1.149s-.835-.446-1.39-.446h-.863v-1.478h.775c.478 0 .88-.129 1.207-.387.327-.259.491-.611.491-1.061 0-.4-.147-.719-.439-.958-.293-.238-.663-.359-1.113-.359-.439 0-.787.116-1.045.351s-.452.532-.564.863l-1.478-.616c.195-.555.555-1.046 1.082-1.469.527-.424 1.201-.637 2.018-.637.605 0 1.149.116 1.631.35.482.235.861.56 1.134.973.274.415.409.88.409 1.396 0 .528-.127.973-.381 1.339s-.566.645-.936.841v.088c.478.197.893.521 1.201.936.312.42.469.921.469 1.507 0 .585-.148 1.108-.445 1.566s-.708.82-1.229 1.082c-.523.263-1.11.396-1.762.396-.756.002-1.453-.215-2.096-.65zm9.173-7.41-1.64 1.186-.82-1.244 2.942-2.122h1.127v10.008h-1.609z" fill="#4285f4"/><path d="m202.644 150.746h-17.214v7.746h17.214z" fill="#34a853"/><path d="m202.642 125.781h-22.378c-1.427 0-2.582 1.156-2.582 2.582v22.378h7.746v-17.213h17.214z" fill="#4285f4"/><path d="m177.682 150.746v5.164c0 1.427 1.155 2.582 2.582 2.582h5.164v-7.746z" fill="#188038"/><path d="m210.383 133.529h-7.746v17.214h7.746z" fill="#fbbc04"/><path d="m210.383 133.528v-5.165c0-1.426-1.156-2.582-2.582-2.582h-5.164v7.747z" fill="#1967d2"/><path d="m202.637 158.492 7.746-7.746h-7.746z" fill="#ea4335"/><path d="m257.268 154.548 1.657 2.862c.344.603.839 1.076 1.42 1.42l5.917-10.242h-11.834c0 .667.172 1.334.516 1.936z" fill="#0066da"/><path d="m273.212 136.537-5.917-10.242c-.581.344-1.076.818-1.42 1.42l-10.931 18.935c-.338.59-.516 1.257-.516 1.937h11.834z" fill="#00ac47"/><path d="m286.086 158.83c.581-.344 1.076-.817 1.42-1.42l.689-1.183 3.292-5.703c.344-.602.516-1.269.516-1.936h-11.835l2.518 4.949z" fill="#ea4335"/><path d="m273.216 136.54 5.917-10.242c-.581-.345-1.248-.517-1.936-.517h-7.962c-.688 0-1.355.194-1.936.517z" fill="#00832d"/><path d="m280.155 148.588h-13.9l-5.917 10.242c.581.344 1.248.517 1.936.517h21.862c.689 0 1.356-.194 1.937-.517z" fill="#2684fc"/><path d="m286.012 137.183-5.466-9.468c-.344-.602-.839-1.076-1.42-1.42l-5.917 10.242 6.95 12.05h11.813c0-.667-.172-1.334-.516-1.937z" fill="#ffba00"/><g clip-path="url(#a)"><path d="m286.077 5.27734h6.431l-12.796 47.96646h-6.297l-10.317-31.6204h-.268l-10.317 31.6204h-6.297l-13.331-47.96646h6.431l10.116 37.71656h.268l10.384-31.2853h5.761l10.384 31.2853h.268z" fill="#5f6368"/><g fill="#5f6368" mask="url(#b)"><path d="m291.928 36.8307c0-5.0459 1.585-9.2217 4.756-12.5276 3.216-3.3049 7.258-4.9574 12.126-4.9574s8.887 1.6525 12.058 4.9574c3.216 3.3059 4.824 7.4817 4.824 12.5276 0 5.0914-1.608 9.2672-4.824 12.5275-3.171 3.3059-7.191 4.9583-12.058 4.9574s-8.909-1.6547-12.126-4.9615c-3.172-3.304-4.757-7.4799-4.756-12.5275m6.163 0c0 3.5291 1.027 6.3875 3.082 8.575 2.054 2.1875 4.6 3.2812 7.637 3.2812s5.582-1.0937 7.637-3.2812c2.054-2.1875 3.082-5.0459 3.082-8.575 0-3.4836-1.028-6.3196-3.082-8.508-2.096-2.2322-4.642-3.3487-7.637-3.3497-2.995-.0009-5.542 1.117-7.64 3.3538-2.055 2.1875-3.083 5.0235-3.082 8.508"/><path d="m336.226 53.2426h-6.164v-32.8262h5.896v5.3594h.273c.625-1.7418 1.91-3.227 3.853-4.4557 1.943-1.2286 3.852-1.8425 5.727-1.8416 1.786 0 3.304.268 4.556.8039l-1.882 5.9651c-.76-.3118-1.966-.4681-3.617-.469-2.323 0-4.343.9379-6.062 2.8137s-2.579 4.0633-2.58 6.5625z"/><path d="m382.088 53.2438h-7.436l-10.249-15.4752-5.025 4.9574v10.5178h-6.163v-47.96646h6.163v29.54356l14.202-14.4033h7.906v.2679l-12.796 12.7286 13.398 19.5617z"/><path d="m408.762 44.133c0 2.8593-1.251 5.271-3.752 7.2352s-5.649 2.9467-9.446 2.9476c-3.305 0-6.207-.8599-8.709-2.5799-2.449-1.6541-4.323-4.0307-5.359-6.799l5.493-2.3447c.804 1.966 1.977 3.4954 3.518 4.5883 1.469 1.0711 3.241 1.6458 5.059 1.6406 1.966 0 3.606-.4243 4.922-1.2729 1.315-.8485 1.973-1.8534 1.975-3.0146 0-2.0964-1.608-3.6372-4.823-4.6225l-5.628-1.4068c-6.384-1.6078-9.577-4.6904-9.578-9.2477 0-2.9914 1.217-5.3921 3.652-7.2023 2.434-1.8102 5.549-2.7143 9.344-2.7125 2.904 0 5.528.6923 7.873 2.0768 2.344 1.3845 3.985 3.2379 4.922 5.5603l-5.492 2.2777c-.63-1.3895-1.702-2.532-3.048-3.2498-1.447-.791-3.074-1.1946-4.723-1.1716-1.527-.0229-3.027.3959-4.321 1.2058-1.276.8039-1.914 1.7865-1.914 2.9477 0 1.8758 1.764 3.2156 5.293 4.0195l4.957 1.2729c6.521 1.6078 9.781 4.889 9.781 9.8437"/><path d="m430.165 54.3156c-2.411 0-4.611-.5136-6.598-1.5408s-3.517-2.3894-4.589-4.0865h-.274l.274 4.5555v14.4703h-6.164v-47.2965h5.896v4.5554h.273c1.072-1.6962 2.602-3.0583 4.59-4.0865 1.988-1.0281 4.187-1.5417 6.598-1.5408 4.331 0 7.993 1.6971 10.987 5.0914 3.081 3.4399 4.622 7.571 4.622 12.3936 0 4.869-1.541 9.0002-4.622 12.3935-2.993 3.3943-6.655 5.0914-10.987 5.0914m-1.005-5.6273c2.948 0 5.426-1.1166 7.436-3.3496 2.005-2.1875 3.008-5.0235 3.008-8.508 0-3.4381-1.003-6.2741-3.008-8.508-2.005-2.234-4.484-3.3506-7.436-3.3497-2.992 0-5.493 1.1166-7.503 3.3497-1.966 2.2339-2.949 5.0699-2.948 8.508 0 3.4836.983 6.3419 2.948 8.575 2.005 2.1875 4.506 3.2812 7.503 3.2812"/><path d="m462.658 19.3471c4.557 0 8.153 1.2168 10.786 3.6504s3.951 5.7722 3.952 10.016v20.2344h-5.895v-4.5583h-.273c-2.546 3.7516-5.94 5.6274-10.183 5.6274-3.618 0-6.644-1.0719-9.078-3.2156-2.435-2.1438-3.652-4.8235-3.651-8.0391 0-3.3934 1.284-6.0954 3.852-8.1061 2.567-2.0106 5.995-3.0155 10.284-3.0146 3.661 0 6.676.6699 9.044 2.0098v-1.4123c0-2.1438-.849-3.964-2.546-5.4606-1.634-1.4719-3.763-2.2731-5.962-2.2435-3.44 0-6.164 1.4515-8.173 4.3545l-5.427-3.418c2.992-4.2839 7.412-6.4258 13.262-6.4258m-7.964 23.8574c0 1.6078.681 2.9477 2.043 4.0196 1.361 1.0718 2.956 1.6078 4.785 1.6078 2.589 0 4.9-.9603 6.933-2.8807 2.032-1.9204 3.049-4.1758 3.049-6.7662-1.922-1.5176-4.601-2.2768-8.039-2.2777-2.502 0-4.59.6029-6.265 1.8088-1.674 1.2058-2.51 2.702-2.506 4.4884z"/><path d="m498.284 54.3156c-4.869 0-8.91-1.6524-12.125-4.9574-3.172-3.3934-4.758-7.5692-4.757-12.5275 0-5.0459 1.586-9.2217 4.757-12.5276 3.215-3.3049 7.257-4.9574 12.125-4.9574 3.35 0 6.275.8372 8.776 2.5115 2.501 1.6744 4.377 3.9858 5.628 6.9344l-5.622 2.3447c-1.742-4.1088-4.801-6.1633-9.178-6.1633-2.814 0-5.248 1.1394-7.302 3.418-2.01 2.2787-3.015 5.0923-3.015 8.441s1.005 6.1624 3.015 8.441c2.053 2.2787 4.487 3.418 7.302 3.418 4.511 0 7.682-2.0544 9.513-6.1633l5.493 2.3448c-1.206 2.9476-3.093 5.2586-5.661 6.933-2.569 1.6743-5.55 2.5119-8.943 2.5129"/><path d="m531.458 54.3156c-4.824 0-8.799-1.6524-11.925-4.9574-3.126-3.3049-4.689-7.4808-4.689-12.5275 0-5.0012 1.518-9.1661 4.555-12.4948 3.037-3.3286 6.923-4.992 11.657-4.9902 4.867 0 8.741 1.5741 11.621 4.7223 2.88 3.1481 4.319 7.5587 4.318 13.2316l-.067.6699h-25.787c.091 3.2157 1.163 5.806 3.216 7.7711 2.052 1.9651 4.509 2.9477 7.369 2.9477 3.929 0 7.011-1.9651 9.245-5.8953l5.493 2.6797c-1.401 2.6926-3.524 4.9425-6.13 6.4982-2.614 1.5622-5.572 2.3438-8.876 2.3447zm-9.844-21.4375h18.818c-.182-2.2786-1.109-4.1658-2.781-5.6615-1.671-1.4957-3.915-2.2436-6.732-2.2436-2.323 0-4.322.7146-5.996 2.1438-1.675 1.4292-2.78 3.3496-3.316 5.7613"/></g><g mask="url(#c)"><path d="m28.4707 32.2082v-7.4184h24.8281c.2757 1.5004.4098 3.0233.4006 4.5487 0 5.5617-1.5217 12.4496-6.4258 17.3496-4.7674 4.967-10.8582 7.6166-18.9355 7.6166-14.9611 0-27.539272-12.1858-27.539272-27.1524s12.578172-27.1523 27.541972-27.1523c8.2783 0 14.1682 3.2457 18.6047 7.48398l-5.2309 5.23082c-3.1814-2.97906-7.4812-5.29781-13.3738-5.29781-10.9238 0-19.46463 8.80741-19.46463 19.73531 0 10.928 8.54083 19.7422 19.46463 19.7422 7.0848 0 11.1235-2.8478 13.7047-5.4304 2.1041-2.1041 3.4904-5.1229 4.0277-9.2491z" fill="#4285f4"/><path d="m91.5309 36.8195c0 10.0735-7.8805 17.4836-17.5438 17.4836s-17.5437-7.4101-17.5437-17.4836c0-10.1322 7.8791-17.4836 17.5464-17.4836 9.6674 0 17.5438 7.3514 17.5438 17.4836m-7.6795 0c0-6.289-4.5678-10.5957-9.8643-10.5957-5.2964 0-9.8656 4.3039-9.8656 10.5957 0 6.2248 4.5678 10.5957 9.8656 10.5957 5.2979 0 9.8643-4.375 9.8643-10.5957z" fill="#ea4335"/><path d="m129.804 36.8195c0 10.0735-7.874 17.4836-17.544 17.4836s-17.5452-7.4101-17.5452-17.4836c0-10.1322 7.8782-17.4836 17.5452-17.4836s17.544 7.3514 17.544 17.4836zm-7.68 0c0-6.289-4.568-10.5957-9.864-10.5957-5.297 0-9.866 4.3039-9.866 10.5957 0 6.2248 4.568 10.5957 9.866 10.5957s9.864-4.375 9.864-10.5957z" fill="#fbbc04"/><path d="m166.494 20.3955v31.3906c0 12.9145-7.614 18.2123-16.619 18.2123-8.476 0-13.573-5.6957-15.493-10.3304l6.691-2.7823c1.191 2.8479 4.102 6.2248 8.806 6.2248 5.76 0 9.336-3.5765 9.336-10.2648v-2.5156h-.266c-1.721 2.1191-5.031 3.973-9.202 3.973-8.741 0-16.751-7.6166-16.751-17.4166 0-9.8683 8.01-17.5506 16.751-17.5506 4.171 0 7.481 1.8539 9.202 3.9075h.266v-2.8479zm-6.754 16.491c0-6.1592-4.102-10.664-9.336-10.664-5.296 0-9.733 4.5035-9.733 10.664 0 6.0922 4.437 10.5274 9.733 10.5274 5.231 0 9.336-4.4366 9.336-10.5274z" fill="#4285f4"/><path d="m179.504 2.02734h-7.68v51.21896h7.68z" fill="#34a853"/><path d="m209.154 42.5809 5.958 3.973c-1.914 2.8479-6.554 7.7492-14.566 7.7492-9.931 0-17.347-7.6822-17.347-17.4836 0-10.3906 7.483-17.4836 16.486-17.4836 9.071 0 13.506 7.2188 14.964 11.1262l.794 1.9865-23.379 9.6688c1.788 3.5096 4.569 5.2978 8.477 5.2978 3.907 0 6.621-1.914 8.613-4.8343zm-18.341-6.2891 15.626-6.4887c-.862-2.1875-3.443-3.7078-6.489-3.7078-3.906 0-9.335 3.444-9.137 10.1992" fill="#ea4335"/></g></g></svg>