<svg fill="none" height="60" viewBox="0 0 60 60" width="60" xmlns="http://www.w3.org/2000/svg" xmlns:xlink="http://www.w3.org/1999/xlink"><linearGradient id="a" gradientUnits="userSpaceOnUse" x1="4.02148" x2="55.9764" y1="18.7501" y2="18.7501"><stop offset="0" stop-color="#d93025"/><stop offset="1" stop-color="#ea4335"/></linearGradient><linearGradient id="b" gradientUnits="userSpaceOnUse" x1="25.903" x2="51.8805" y1="59.5989" y2="14.6047"><stop offset="0" stop-color="#fcc934"/><stop offset="1" stop-color="#fbbc04"/></linearGradient><linearGradient id="c" gradientUnits="userSpaceOnUse" x1="33.2475" x2="7.26998" y1="58.1272" y2="13.1328"><stop offset="0" stop-color="#1e8e3e"/><stop offset="1" stop-color="#34a853"/></linearGradient><clipPath id="d"><path d="m0 0h60v60h-60z"/></clipPath><g clip-path="url(#d)"><path d="m30 44.9941c8.2843 0 15-6.7157 15-15 0-8.2842-6.7157-15-15-15s-15 6.7158-15 15c0 8.2843 6.7157 15 15 15z" fill="#fff"/><path d="m29.9999 15.0001h25.9765c-2.6323-4.5608-6.4189-8.34817-10.9792-10.98129s-9.7335-4.01917734-14.9993-4.01880993c-5.2659.00036741-10.4389 1.38714993-14.9988 4.02089993-4.5599 2.63376-8.34599 6.4216-10.97762 10.9828l12.98822 22.4964.0117-.003c-1.3213-2.2785-2.0185-4.8649-2.0215-7.4987s.6885-5.2218 2.0046-7.5032 3.2104-4.1755 5.4919-5.4914c2.2816-1.3158 4.8697-2.007 7.5035-2.0037z" fill="url(#a)"/><path d="m30 41.875c6.5584 0 11.875-5.3166 11.875-11.875s-5.3166-11.875-11.875-11.875-11.875 5.3166-11.875 11.875 5.3166 11.875 11.875 11.875z" fill="#1a73e8"/><path d="m42.9897 37.5037-12.9882 22.4963c5.2658.0008 10.4391-1.3849 14.9995-4.0177 4.5605-2.6328 8.3474-6.4199 10.98-10.9804 2.6325-4.5606 4.018-9.7339 4.0171-14.9997-.001-5.2659-1.3883-10.4387-4.0225-14.9983h-25.9764l-.0031.0116c2.6338-.005 5.2224.6843 7.5048 1.9986 2.2824 1.3144 4.178 3.2072 5.4957 5.4877s2.0108 4.868 2.0096 7.5018-.6967 5.2208-2.0165 7.5001z" fill="url(#b)"/><path d="m17.0106 37.5042-12.98825-22.4964c-2.63359 4.56-4.02020061 9.733-4.02039685 14.9989-.00019625 5.2659 1.38602685 10.439 4.01927685 14.9992 2.63326 4.5602 6.42077 8.3467 10.98157 10.9788 4.5608 2.6322 9.7343 4.0171 15.0002 4.0156l12.9882-22.4964-.0084-.0085c-1.3125 2.2835-3.2038 4.1806-5.4833 5.5-2.2794 1.3195-4.8664 2.0147-7.5002 2.0156s-5.2213-.6926-7.5017-2.0105c-2.2803-1.318-4.1729-3.2137-5.487-5.4963z" fill="url(#c)"/></g></svg>