<svg fill="none" height="50" viewBox="0 0 108 50" width="108" xmlns="http://www.w3.org/2000/svg"><g fill="#3879f7"><path d="m96.7668 9.1875c10.2162 0 10.9342 9.7024 10.9342 12.9879v15.5034h-6.263v-13.3473c0-3.4395-.564-9.3431-6.5193-9.3431-3.1314 0-6.4683 1.6941-6.4683 8.4191v14.2713h-6.2629v-27.72127l5.5442 2.33347v.7467c2.0021-2.4128 5.0309-3.8502 9.0351-3.8502z"/><path d="m68.3652 5.64692v-5.64692h6.1603v5.64692zm0 32.03348v-27.72128h6.1603v27.72128z"/><path d="m49.306 9.1875c7.8543 0 12.8852 6.2116 12.8852 14.6307 0 8.3163-4.9795 14.6306-12.6799 14.6306-2.8748 0-5.2362-.8213-7.1356-2.2074v13.7579h-6.2116v-40.04177l5.4929 2.33347v-.3827c1.9507-1.7454 4.5175-2.7208 7.649-2.7208zm-.7187 23.7171c4.8255 0 7.0843-4.0042 7.0843-9.0864 0-5.0309-2.3101-9.0865-7.2897-9.0865-4.7228 0-6.7249 3.6962-6.7249 9.0865 0 5.3902 1.9507 9.0864 6.9303 9.0864z"/><path d="m16.1853 38.4509c-8.11104 0-14.16864-4.4662-15.349362-11.7045l6.468292-.9754c1.07805 4.4149 4.77417 6.879 9.24037 6.879 3.9529 0 7.6491-1.8994 7.6491-5.2876 0-2.1047-1.3348-3.4395-4.1069-4.3122l-9.5484-2.7721c-3.28551-.9754-8.26506-2.9775-8.26506-9.4971 0-7.13564 6.00627-10.8318075 13.55256-10.78047249 7.5464.05133499 12.8853 3.95284249 14.5794 10.83187249l-6.6737 1.1293c-.8213-3.90148-4.2095-6.10891-8.0083-6.16024-3.6962-.10267-6.93034 1.79674-6.93034 4.67154 0 2.7721 2.87484 3.7988 5.33894 4.4662l6.6223 1.7967c3.5935 1.0268 9.9077 2.8235 9.9077 10.1645 0 7.7004-6.9303 11.5505-14.4766 11.5505z"/></g></svg>