<svg fill="none" height="71" viewBox="0 0 235 71" width="235" xmlns="http://www.w3.org/2000/svg"><path d="m.5 62.9162v-54.82285c0-4.19381 3.39976-7.593571 7.59358-7.593571h218.75042c4.194 0 7.593 3.399761 7.593 7.593571v54.82285c0 4.1938-3.399 7.5936-7.593 7.5936h-218.75042c-4.19382 0-7.59358-3.3998-7.59358-7.5936z" fill="#fff" stroke="#f8f8f8"/><g fill="#5f6368"><path d="m75.3672 54.341v-17.6867h6.1273c.7895 0 1.5343.1341 2.2344.3972.7001.2632 1.3109.6356 1.8422 1.1123.5263.4767.9434 1.0477 1.2463 1.718.3029.6654.4568 1.4052.4568 2.2096s-.1539 1.5194-.4568 2.1848c-.3029.6653-.72 1.2413-1.2463 1.718-.5264.4767-1.1421.8491-1.8422 1.1122-.7001.2632-1.4449.3973-2.2344.3973h-3.3368v6.8423h-2.7905zm6.2018-9.5087c.4617 0 .8739-.0795 1.2363-.2334.3625-.1539.6654-.3674.9137-.6306.2482-.2632.4369-.5611.566-.8888.1341-.3277.1986-.6604.1986-.9881 0-.3476-.0645-.6852-.1986-1.0129-.134-.3278-.3227-.6207-.566-.8789-.2483-.2533-.5512-.4668-.9137-.6306-.3624-.1639-.7746-.2483-1.2363-.2483h-3.4113v5.5066h3.4113z"/><path d="m96.4729 52.8562h-.149c-.3625.4767-.8342.9087-1.4102 1.296-.5759.3873-1.3108.581-2.1996.581-.6406 0-1.2414-.1043-1.8025-.3079-.561-.2036-1.0477-.4916-1.4598-.864s-.7349-.8044-.9732-1.3108c-.2383-.5015-.3575-1.0577-.3575-1.6684 0-.6405.1291-1.2165.3823-1.728.2533-.5114.6108-.9384 1.0626-1.286.4519-.3476.9931-.6157 1.6187-.8044.6257-.1887 1.301-.283 2.0259-.283.8044 0 1.4797.0794 2.0259.2334.5412.1589.9534.3029 1.2364.432v-.4718c0-.3624-.0795-.7001-.2334-1.0129-.1589-.3128-.3724-.5809-.6405-.8044-.2682-.2234-.581-.3972-.9286-.5164-.3475-.1241-.71-.1837-1.0874-.1837-.6107 0-1.1569.1192-1.6435.3575s-.9186.6207-1.296 1.147l-2.1748-1.435c.576-.7895 1.291-1.3853 2.15-1.7925.854-.4022 1.8273-.6058 2.9147-.6058 1.7925 0 3.1828.4469 4.161 1.3357.9781.8888 1.4697 2.16 1.4697 3.8035v7.3587h-2.6912v-1.4797zm0-3.5552c-.3625-.2135-.7647-.3873-1.2116-.5164-.4469-.134-.9533-.1986-1.5293-.1986-.8541 0-1.5393.1986-2.0507.5909-.5115.3972-.7647.8739-.7647 1.435 0 .2979.0646.5561.1986.7796.1341.2234.2979.4171.5065.5809.2036.1639.4469.288.715.3724.2731.0844.5462.1241.8292.1241.4469 0 .869-.0844 1.2712-.2581.4022-.1738.7547-.4022 1.0477-.6902.2979-.288.5362-.6207.715-.9981.1787-.3774.2731-.7795.2731-1.2115z"/><path d="m104.206 44.2613h.149c.328-.6902.829-1.2264 1.495-1.6038.665-.3774 1.405-.5661 2.209-.5661.264 0 .457.01.581.0249s.254.0397.383.0744v2.7658c-.184-.0646-.358-.1093-.532-.1341-.173-.0248-.397-.0348-.68-.0348-1.038 0-1.872.3178-2.507.9534-.636.6356-.954 1.4697-.954 2.5075v6.3011h-2.741v-12.1056h2.592v1.8272zm8.521.3972h-2.125v-2.4231h2.125v-3.7042h2.741v3.7042h2.989v2.4231h-2.989v5.5315c0 .3029.035.5859.099.8391.065.2533.164.4668.298.6356.278.3228.636.4816 1.063.4816.263 0 .466-.0198.615-.0595.149-.0398.303-.1043.467-.1838l.839 2.4231c-.347.1341-.71.2334-1.087.3079-.378.0745-.81.1092-1.286.1092-.576 0-1.088-.0943-1.53-.278s-.834-.437-1.161-.7548c-.711-.7249-1.063-1.7031-1.063-2.9494v-6.0975z"/><path d="m122.994 43.8677h.149c.363-.576.879-1.0576 1.544-1.445.666-.3873 1.421-.5809 2.26-.5809 1.529 0 2.676.4568 3.436 1.3704.755.9137 1.137 2.1302 1.137 3.6446v7.4829h-2.741v-7.1154c0-1.0527-.243-1.7925-.73-2.2096-.487-.4221-1.122-.6306-1.917-.6306-.476 0-.898.0993-1.261.2979-.362.1986-.675.4667-.938.8044-.263.3376-.462.7249-.591 1.1619-.134.4369-.199.8938-.199 1.3704v6.3259h-2.741v-12.1056h2.592z"/><path d="m145.105 51.4507c-.511.9385-1.236 1.723-2.175 2.3486-.938.6257-2.09.9385-3.456.9385-.903 0-1.742-.1589-2.507-.4816-.765-.3228-1.43-.7697-1.986-1.3457-.561-.5759-.998-1.2562-1.311-2.0358-.313-.7795-.467-1.6435-.467-2.582 0-.8739.149-1.6981.447-2.4827.298-.7795.71-1.4648 1.246-2.0507.537-.5859 1.182-1.0477 1.937-1.3952.755-.3476 1.599-.5164 2.517-.5164.919 0 1.773.1589 2.508.4717s1.355.7497 1.867 1.3108c.511.5611.903 1.2364 1.172 2.0259.268.7895.407 1.6535.407 2.5919v.2235c-.015.0844-.025.1589-.025.2234-.015.0646-.025.1341-.025.1986h-9.31c.05.576.189 1.0775.422 1.5046.228.427.516.7845.854 1.0625.338.2781.71.4867 1.122.6158.412.134.815.1986 1.212.1986.789 0 1.44-.1887 1.951-.5661.512-.3774.929-.8491 1.261-1.4102l2.349 1.1619zm-2.542-4.6674c-.035-.2483-.109-.5214-.233-.8293-.125-.3029-.313-.5859-.567-.8391-.253-.2533-.585-.4717-.988-.6554-.402-.1788-.893-.2731-1.469-.2731-.79 0-1.47.2333-2.036.705-.566.4718-.954 1.0974-1.147 1.8919h6.445z"/><path d="m147.114 42.2362h2.592v1.8272h.149c.149-.3128.348-.6057.606-.8788s.541-.5015.864-.6952c.323-.1887.66-.3476 1.013-.4717.352-.1241.695-.1837 1.023-.1837.397 0 .735.0397 1.013.1142s.536.1787.764.3078l-.789 2.4927c-.184-.0844-.382-.144-.606-.1838-.223-.0397-.491-.0595-.804-.0595-.447 0-.854.0893-1.222.2731-.372.1837-.695.4319-.978.7448-.278.3128-.496.6852-.655 1.1172s-.234.8838-.234 1.3655v6.3308h-2.741v-12.1056z"/><path d="m88.3144 20.2383c0 1.867-.5511 3.3516-1.6584 4.4589-1.2413 1.3158-2.8799 1.9762-4.9058 1.9762s-3.58-.6703-4.9257-2.0159c-1.3406-1.3407-2.0159-2.9941-2.0159-4.9604s.6703-3.6198 2.0159-4.9605c1.3407-1.3406 2.9842-2.0159 4.9257-2.0159.9831 0 1.9067.1738 2.7806.5214.869.3475 1.584.8391 2.1451 1.4747l-1.2314 1.2314c-.4122-.4965-.9435-.8838-1.5939-1.1669-.6505-.278-1.3506-.422-2.1004-.422-1.4549 0-2.6863.5015-3.6942 1.5095-.9931 1.0179-1.4897 2.294-1.4897 3.8233s.4966 2.8054 1.4897 3.8234c1.0079 1.0079 2.2393 1.5094 3.6942 1.5094 1.3307 0 2.438-.3724 3.3218-1.1172.8839-.7448 1.3904-1.7726 1.5294-3.0785h-4.8512v-1.6038h6.4699c.0596.3475.0943.6852.0943 1.0079z"/><path d="m89.4922 21.8036c0-1.4052.4419-2.5671 1.3257-3.4857.8938-.9186 2.021-1.3804 3.3765-1.3804 1.3556 0 2.4728.4618 3.3566 1.3804.8938.9186 1.3407 2.0805 1.3407 3.4857s-.4469 2.582-1.3407 3.4857c-.8838.9186-2.001 1.3804-3.3566 1.3804-1.3555 0-2.4827-.4618-3.3765-1.3804-.8838-.9186-1.3257-2.0805-1.3257-3.4857zm1.718 0c0 .9831.288 1.7776.859 2.3883.571.6108 1.2811.9137 2.1252.9137s1.5542-.3029 2.1252-.9137c.571-.6107.859-1.4052.859-2.3883 0-.9832-.288-1.7578-.859-2.3685-.5859-.6207-1.291-.9335-2.1252-.9335s-1.5393.3128-2.1252.9335c-.571.6107-.859 1.4002-.859 2.3685z"/><path d="m99.9336 21.8036c0-1.4052.4424-2.5671 1.3254-3.4857.894-.9186 2.021-1.3804 3.377-1.3804 1.355 0 2.473.4618 3.356 1.3804.894.9186 1.341 2.0805 1.341 3.4857s-.447 2.582-1.341 3.4857c-.883.9186-2.001 1.3804-3.356 1.3804-1.356 0-2.483-.4618-3.377-1.3804-.883-.9186-1.3254-2.0805-1.3254-3.4857zm1.7184 0c0 .9831.288 1.7776.859 2.3883.571.6108 1.281.9137 2.125.9137s1.554-.3029 2.125-.9137c.571-.6107.859-1.4052.859-2.3883 0-.9832-.288-1.7578-.859-2.3685-.586-.6207-1.291-.9335-2.125-.9335s-1.539.3128-2.125.9335c-.571.6107-.859 1.4002-.859 2.3685z"/><path d="m114.951 30.7016c-.511 0-.988-.0646-1.435-.1937s-.854-.3128-1.222-.5512c-.367-.2383-.68-.5164-.943-.8391-.263-.3228-.462-.6852-.596-1.0825l1.624-.6703c.189.5363.511.9633.968 1.286.462.3228.993.4867 1.604.4867.933 0 1.658-.2781 2.18-.8392.521-.5611.784-1.3307.784-2.3139v-.8788h-.074c-.323.4866-.76.8689-1.316 1.147-.551.278-1.152.422-1.797.422-1.192 0-2.22-.4667-3.079-1.4002-.844-.9583-1.266-2.1153-1.266-3.4708 0-1.3556.422-2.5075 1.266-3.451.859-.9434 1.882-1.4151 3.079-1.4151.645 0 1.246.139 1.797.4221.551.278.993.6604 1.316 1.147h.074v-1.2662h1.644v8.749c0 1.4648-.417 2.6168-1.251 3.4509-.845.8442-1.967 1.2662-3.357 1.2662zm.055-5.596c.844 0 1.534-.3029 2.07-.9137.561-.6107.839-1.4052.839-2.3883 0-.9832-.278-1.7478-.839-2.3685-.546-.6207-1.236-.9335-2.07-.9335-.835 0-1.51.3128-2.071.9335s-.839 1.4102-.839 2.3685.278 1.7577.839 2.3685c.561.6206 1.251.9335 2.071.9335z"/><path d="m123.359 13.0195v13.352h-1.718v-13.352z"/><path d="m129.456 26.6736c-1.341 0-2.448-.4618-3.322-1.3804-.869-.9186-1.306-2.0805-1.306-3.4857s.422-2.5522 1.266-3.4758c.844-.9285 1.927-1.3903 3.248-1.3903 1.32 0 2.433.437 3.237 1.3158.8.8789 1.202 2.1054 1.202 3.6844l-.02.1886h-7.18c.025.8938.323 1.6188.894 2.1649.571.5462 1.256.8193 2.05.8193 1.093 0 1.952-.5462 2.572-1.6435l1.53.7448c-.412.7696-.978 1.3754-1.708 1.8074-.725.437-1.549.6505-2.473.6505zm-2.741-5.9684h5.238c-.049-.6356-.307-1.157-.774-1.5741s-1.093-.6256-1.872-.6256c-.646 0-1.202.1986-1.668.5959-.467.3972-.775.9334-.924 1.6038z"/><path d="m145.663 26.6734c-1.976 0-3.629-.6653-4.96-1.996-1.316-1.3308-1.976-2.9892-1.976-4.9803 0-1.9912.66-3.6446 1.976-4.9605 1.316-1.3406 2.969-2.0159 4.96-2.0159s3.65.7249 4.906 2.1798l-1.231 1.1917c-.959-1.1569-2.18-1.7329-3.675-1.7329-1.494 0-2.716.4965-3.709 1.4896-.983.9831-1.475 2.2642-1.475 3.8432s.492 2.8601 1.475 3.8432c.993.9931 2.23 1.4896 3.709 1.4896 1.554 0 2.905-.6504 4.047-1.9563l1.251 1.2115c-.635.7597-1.41 1.3456-2.329 1.7627-.918.4171-1.906.6257-2.964.6257z"/><path d="m154.202 13.0195v13.352h-1.718v-13.352z"/><path d="m155.68 21.8036c0-1.4052.442-2.5671 1.325-3.4857.894-.9186 2.021-1.3804 3.377-1.3804 1.355 0 2.473.4618 3.357 1.3804.893.9186 1.34 2.0805 1.34 3.4857s-.447 2.582-1.34 3.4857c-.884.9186-2.002 1.3804-3.357 1.3804-1.356 0-2.483-.4618-3.377-1.3804-.883-.9186-1.325-2.0805-1.325-3.4857zm1.718 0c0 .9831.288 1.7776.859 2.3883.571.6108 1.281.9137 2.125.9137s1.554-.3029 2.125-.9137c.571-.6107.859-1.4052.859-2.3883 0-.9832-.288-1.7578-.859-2.3685-.586-.6207-1.291-.9335-2.125-.9335s-1.539.3128-2.125.9335c-.571.6107-.859 1.4002-.859 2.3685z"/><path d="m174.57 26.3746h-1.643v-1.2662h-.075c-.263.4469-.66.8193-1.201 1.1172-.542.298-1.103.4469-1.689.4469-1.117 0-1.981-.3178-2.582-.9583s-.903-1.5492-.903-2.731v-5.7449h1.718v5.6307c.039 1.4896.789 2.2394 2.254 2.2394.685 0 1.256-.278 1.718-.8292s.69-1.2165.69-1.9862v-5.0547h1.718v9.1363z"/><path d="m180.388 26.6733c-1.192 0-2.22-.4717-3.079-1.4151-.844-.9584-1.266-2.1054-1.266-3.451s.422-2.4926 1.266-3.4509c.859-.9435 1.882-1.4152 3.079-1.4152.67 0 1.281.144 1.837.4271.551.2879.978.6653 1.276 1.137h.074l-.074-1.2661v-4.2157h1.718v13.352h-1.644v-1.2662h-.074c-.298.4717-.725.854-1.276 1.1371-.551.283-1.167.427-1.837.427zm.278-1.5691c.844 0 1.534-.3029 2.07-.9136.561-.6107.839-1.4052.839-2.3884 0-.9831-.278-1.7478-.839-2.3684-.546-.6207-1.236-.9335-2.07-.9335s-1.51.3128-2.071.9335c-.561.6206-.839 1.4101-.839 2.3684 0 .9584.278 1.7578.839 2.3685.561.6207 1.251.9335 2.071.9335z"/></g><path d="m41.4281 27.245 1.4995.0298 4.0667-4.0666.1986-1.723c-3.2325-2.875-7.4878-4.6278-12.1454-4.6278-8.4312 0-15.5466 5.735-17.6569 13.5108.4469-.3078 1.3903-.0794 1.3903-.0794l8.1333-1.3357s.4221-.6902.6306-.6505c1.8621-2.0358 4.5334-3.3168 7.5027-3.3168 2.4132 0 4.6327.849 6.3806 2.2592z" fill="#ea4335"/><path d="m52.7032 30.3745c-.9434-3.4857-2.8948-6.5592-5.5165-8.8979l-5.7648 5.7648c2.3089 1.867 3.7886 4.7171 3.7886 7.9049v1.0179c2.8004 0 5.0795 2.2791 5.0795 5.0796 0 2.8004-2.2791 5.0796-5.0845 5.0796h-10.1642l-1.0179 1.0228v6.0975l1.0179 1.013h10.1642c7.2842 0 13.2129-5.9287 13.2129-13.2129 0-4.5036-2.2692-8.4859-5.7201-10.8742z" fill="#4285f4"/><path d="m24.8838 54.4554h10.1543v-8.1334h-10.1543c-.7448 0-1.4548-.1638-2.0954-.4568l-1.4647.4469-4.0717 4.0716-.3575 1.3754c2.2196 1.6883 4.9853 2.6963 7.9844 2.6963z" fill="#34a853"/><path d="m24.8848 28.0293c-7.2843 0-13.2129 5.9287-13.2129 13.2129 0 4.2901 2.0556 8.1085 5.2335 10.5216l5.8939-5.8939c-1.7627-.7994-2.9941-2.572-2.9941-4.6277 0-2.8005 2.2791-5.0796 5.0796-5.0796 2.0606 0 3.8332 1.2314 4.6277 2.9941l5.8939-5.8939c-2.4132-3.1778-6.2315-5.2335-10.5216-5.2335z" fill="#fbbc05"/></svg>