<svg fill="none" height="38" viewBox="0 0 166 38" width="166" xmlns="http://www.w3.org/2000/svg" xmlns:xlink="http://www.w3.org/1999/xlink"><linearGradient id="a" gradientUnits="userSpaceOnUse" x1="18.202" x2="18.202" y1="4.0009" y2="36.7726"><stop offset=".00000066" stop-color="#a1daf8"/><stop offset=".3166" stop-color="#6dcaf3"/><stop offset=".7807" stop-color="#0a74bb"/><stop offset="1" stop-color="#004f9f"/></linearGradient><path d="m72.928 28.1958c0 .1343 0 .2015-.0672.2687-.0672.0671-.2015.1343-.3358.2015-.1344.0671-.3359.0671-.6045.1343-.2687 0-.6045.0672-1.0076.0672-.403 0-.7388 0-1.0075-.0672-.2686 0-.4701-.0672-.6045-.1343-.1343-.0672-.2686-.1344-.3358-.2015-.0672-.0672-.0672-.2015-.0672-.2687v-8.5303c0-.4701-.0671-.9403-.1343-1.3433s-.2015-.7389-.403-1.0075c-.2015-.2687-.403-.5374-.7389-.6717-.2686-.1343-.6045-.2015-1.0075-.2015-.4701 0-1.0075.2015-1.4777.5373-.4701.403-1.0075.9404-1.612 1.6792v9.605c0 .1343 0 .2015-.0671.2686-.0672.0672-.2015.1344-.3359.2015-.1343.0672-.3358.0672-.6045.1344-.2687 0-.6045.0671-.9403.0671-.403 0-.7389 0-1.0075-.0671-.2687 0-.4702-.0672-.6045-.1344-.1344-.0671-.2687-.1343-.3359-.2015-.0672-.0671-.0672-.2015-.0672-.2686v-8.5975c0-.4701-.0671-.9403-.1343-1.3433s-.2015-.7389-.403-1.0075c-.2015-.2687-.403-.5374-.7388-.6717-.2687-.1343-.6045-.2015-1.0075-.2015-.4702 0-1.0076.2015-1.4777.5373-.4702.403-1.0075.9404-1.612 1.6792v9.605c0 .1343-.0001.2015-.0672.2686-.0672.0672-.2015.1344-.3359.2015-.1343.0672-.3358.0672-.6045.1344-.2686 0-.6045.0671-1.0075.0671s-.7388 0-1.0075-.0671c-.2687 0-.4702-.0672-.6045-.1344-.1343-.0671-.2687-.1343-.3358-.2015-.0672-.0671-.0672-.2015-.0672-.2686v-14.5082c0-.1343 0-.2015.0672-.2687.0671-.0671.1343-.1343.2686-.2015.1344-.0671.3359-.0671.5374-.1343.2015 0 .4702-.0672.806-.0672s.6045 0 .8732.0672c.2015 0 .403.0672.5373.1343.1343.0672.2015.1344.2687.2015.0671.0672.0671.2015.0671.2687v1.6792c.8061-.8732 1.6121-1.4777 2.3509-1.9479.806-.403 1.612-.6716 2.4852-.6716.6045 0 1.1418.0671 1.612.2015.4702.1343.8732.2686 1.2762.5373.403.2015.6717.5373.9403.806.2687.3358.4702.6717.6717 1.0747.403-.4702.8732-.8732 1.2762-1.209.403-.3359.806-.6045 1.209-.806s.806-.3359 1.209-.4702.806-.1343 1.2091-.1343c.9403 0 1.7463.1343 2.418.4701.6716.3359 1.209.7389 1.612 1.3434.403.5373.6717 1.209.8732 1.9478.2015.7389.2686 1.5449.2686 2.3509v9.2691z" fill="#454444"/><path d="m87.839 25.9121v.6717c0 .2015-.0671.3358-.0671.4702 0 .1343-.0672.2015-.0672.3358-.0672.0672-.1343.2015-.2687.3358-.1343.1344-.3358.2687-.6716.4702-.3359.2015-.6717.3358-1.0747.4702-.403.1343-.806.2686-1.2762.3358s-.9403.1343-1.4777.1343c-1.1418 0-2.0822-.2015-2.9553-.5373-.8732-.3358-1.5449-.8732-2.1494-1.5448-.6045-.6717-1.0075-1.4777-1.3434-2.4852-.2686-.9404-.4701-2.0822-.4701-3.3584 0-1.4105.2015-2.6867.5373-3.7614.3359-1.0747.8732-1.9478 1.4777-2.6195.6717-.6717 1.4105-1.209 2.2837-1.5449.8732-.3358 1.8807-.4701 2.8882-.4701.403 0 .8732.0671 1.2762.1343s.806.2015 1.1418.3358c.3359.1344.6717.2687.9404.403.2686.1344.4701.2687.6045.403.1343.1344.2015.2015.2686.2687.0672.0672.0672.2015.1344.3358 0 .1344.0672.2687.0672.4702v.6717c0 .6045-.0672 1.0747-.1344 1.3433-.1343.2687-.2687.403-.403.403-.2015 0-.403-.0671-.6045-.2015-.2015-.1343-.4702-.3358-.7388-.4701-.2687-.2015-.6045-.3359-1.0076-.4702-.403-.1343-.8731-.2015-1.4105-.2015-1.0747 0-1.8807.403-2.418 1.209s-.8732 2.015-.8732 3.5599c0 .806.0672 1.4777.2015 2.0822.1344.6045.3359 1.0747.6045 1.4777.2687.403.6045.6716 1.0075.8731.4031.2015.8732.2687 1.4777.2687.5374 0 1.0747-.0672 1.4777-.2687.403-.1343.7389-.3358 1.0747-.5373.2687-.2015.5373-.403.7388-.5373.2015-.1344.403-.2687.5374-.2687.0671 0 .2015 0 .2686.0672.0672.0671.1344.1343.1344.2686.0671.1344.0672.3359.0672.5374.2015.2686.2014.6045.2014.9403z" fill="#0065b1"/><path d="m105.504 25.5759v.6716c0 .2015-.067.3359-.067.4702s-.067.2687-.135.3358c-.067.0672-.134.2015-.268.3359-.135.1343-.336.2687-.672.4702s-.739.403-1.276.5373c-.47.2015-1.075.3358-1.679.4702-.605.1343-1.344.2015-2.0153.2015-1.4105 0-2.7538-.2015-3.8957-.6717-1.1418-.4702-2.1494-1.0747-2.9554-1.9479-.806-.8731-1.4105-1.9478-1.8806-3.2912-.403-1.3433-.6717-2.821-.6717-4.5674 0-1.7463.2686-3.3583.7388-4.7017.4702-1.4105 1.1419-2.5523 2.015-3.4927.8732-.94033 1.8807-1.67917 3.0897-2.14935 1.2091-.47017 2.4852-.73884 3.9629-.73884.6043 0 1.1423.06717 1.6793.13434s1.007.2015 1.478.403c.47.13434.873.33584 1.209.53734.335.2015.604.40301.738.53734.135.13434.269.26867.269.33584.067.06717.067.2015.134.403 0 .13434.068.33583.068.53733v.7389.806s-.068.403-.135.5373-.134.2687-.201.3358c-.067.0672-.135.0672-.269.0672s-.336-.0672-.604-.2687c-.269-.2015-.538-.403-.941-.6045s-.873-.4701-1.41-.6045c-.538-.2015-1.209-.2686-1.9481-.2686-.806 0-1.5449.2015-2.2165.5373-.6717.3358-1.209.806-1.6792 1.4777-.4702.6045-.806 1.4105-1.0747 2.2837s-.3358 1.8807-.3358 3.0225c0 1.209.1343 2.2837.403 3.224.2686.8732.6045 1.6121 1.0747 2.2166.4701.6045 1.0075 1.0075 1.6791 1.2762.6717.2686 1.4105.403 2.2166.403.7389 0 1.4109-.0672 1.9479-.2687s1.007-.403 1.41-.6045.739-.403.941-.6045c.268-.2015.47-.2687.604-.2687.135 0 .202 0 .269.0672.067.0671.134.1343.134.2686.067.1344.067.3359.067.5374.202.2015.202.4702.202.8732z" fill="#0065b1"/><g fill="#454444"><path d="m112.421 28.1935c0 .1343 0 .2015-.067.2686-.068.0672-.202.1344-.336.2015-.135.0672-.336.0672-.605.1344-.269 0-.604.0671-1.007.0671s-.739 0-1.008-.0671c-.269 0-.47-.0672-.604-.1344-.135-.0671-.269-.1343-.336-.2015-.067-.0671-.067-.2015-.067-.2686v-21.22495c0-.13434 0-.2015.067-.26867s.201-.13434.336-.2015c.134-.06717.335-.13434.604-.13434s.605-.06716 1.008-.06716.738-.00001 1.007.06716c.269 0 .47.06717.605.13434.134.06716.268.13433.336.2015.067.06717.067.2015.067.26867z"/><path d="m131.025 20.8718c0 1.2091-.134 2.3509-.47 3.3584s-.806 1.8807-1.477 2.6195c-.672.7389-1.478 1.2762-2.486 1.6792-1.007.403-2.149.6045-3.492.6045-1.277 0-2.418-.2015-3.359-.5373-.94-.3358-1.746-.8732-2.351-1.5449-.604-.6716-1.074-1.5448-1.41-2.4852-.269-1.0075-.47-2.1493-.47-3.4255 0-1.209.134-2.3509.47-3.3584s.806-1.8807 1.478-2.6195c.671-.7388 1.477-1.2762 2.485-1.6792 1.007-.403 2.149-.6045 3.493-.6045 1.276 0 2.418.2015 3.358.5373.94.3359 1.746.8732 2.351 1.5449.604.6717 1.074 1.5448 1.41 2.4852.336 1.0075.47 2.1494.47 3.4255zm-4.164.1344c0-.7389-.067-1.3434-.201-1.9479-.135-.6045-.336-1.1418-.605-1.5448-.269-.4702-.604-.806-1.075-1.0075-.47-.2687-1.007-.4031-1.679-.4031-.604 0-1.142.1344-1.612.3359s-.806.5373-1.142.9403c-.268.403-.537.9404-.671 1.5449-.135.6045-.202 1.2762-.202 2.015s.067 1.3434.202 1.9479c.134.6045.335 1.1418.604 1.5448.269.4702.605.806 1.075 1.0075.47.2687 1.007.3359 1.679.3359.605 0 1.142-.1344 1.612-.3359s.806-.5373 1.142-.9403c.269-.403.537-.9404.672-1.5449.134-.4701.201-1.209.201-1.9478z"/><path d="m147.885 28.1928c0 .1343 0 .2015-.067.2686-.067.0672-.135.1344-.269.2015-.134.0672-.336.0672-.537.1344-.202 0-.47.0671-.806.0671s-.672 0-.873-.0671c-.202 0-.403-.0672-.538-.1344-.134-.0671-.201-.1343-.268-.2015-.068-.0671-.068-.2015-.068-.2686v-1.6792c-.806.8732-1.612 1.4777-2.418 1.9478-.806.403-1.679.6717-2.552.6717-1.007 0-1.813-.1343-2.485-.4702-.672-.3358-1.209-.7388-1.612-1.3433-.403-.5374-.739-1.209-.873-1.9479-.202-.7388-.269-1.6792-.269-2.7538v-8.8661c0-.1344 0-.2015.067-.2687s.135-.1344.336-.2015c.134-.0672.336-.0672.605-.1344.268 0 .604-.0671 1.007-.0671s.739 0 1.008.0671c.268 0 .47.0672.604.1344.134.0671.269.1343.336.2015s.067.2015.067.2687v8.1272c0 .7389.067 1.3434.134 1.7464.068.403.269.7388.471 1.0075.201.2687.47.5373.738.6717.336.1343.672.2015 1.075.2015.537 0 1.008-.2015 1.545-.5374.537-.403 1.075-.9403 1.679-1.6792v-9.5377c0-.1344 0-.2015.067-.2687s.135-.1344.336-.2015c.134-.0672.336-.0672.605-.1344.268 0 .604-.0671 1.007-.0671s.739 0 1.008.0671c.268 0 .47.0672.604.1344.134.0671.269.1343.336.2015s.067.2015.067.2687v14.441z"/><path d="m165.685 28.1935c0 .1343 0 .2015-.067.2686-.068.0672-.135.1344-.269.2015-.134.0672-.336.0672-.537.1344-.202 0-.471 0-.806 0-.336 0-.605 0-.874 0-.201 0-.403-.0672-.537-.1344-.134-.0671-.202-.1343-.269-.2015-.067-.0671-.067-.2015-.067-.2686v-1.612c-.739.806-1.545 1.4105-2.351 1.8806-.806.4702-1.746.6717-2.686.6717-1.075 0-2.015-.2015-2.821-.6717-.739-.403-1.411-1.0075-1.881-1.7463-.47-.7389-.806-1.5449-1.075-2.5524-.201-.9403-.336-1.9478-.336-3.0225 0-1.2762.135-2.418.403-3.4256.269-1.0075.672-1.8806 1.209-2.6195.538-.7388 1.209-1.2762 1.948-1.6792.806-.403 1.679-.6045 2.687-.6045.806 0 1.545.1344 2.216.4702.672.3358 1.277.806 1.948 1.4777v-7.79145c0-.13434 0-.2015.068-.26867.067-.06717.134-.13434.335-.2015.135-.06717.336-.13434.605-.13434s.604-.06716 1.007-.06716.739-.00001 1.008.06716c.269 0 .47.06717.604.13434.135.06716.269.13433.336.2015s.067.2015.067.26867v21.22495zm-4.03-9.605c-.605-.7388-1.142-1.2762-1.68-1.6792-.537-.403-1.074-.6045-1.679-.6045-.537 0-1.007.1344-1.343.403-.403.2687-.672.6045-.94 1.0747-.202.4702-.403.9404-.538 1.4777-.134.5373-.201 1.0747-.201 1.6792s.067 1.209.134 1.7463c.067.6045.269 1.0747.47 1.5449.202.4702.538.806.873 1.0747.336.2686.806.403 1.411.403.269 0 .537-.0672.806-.1344.269-.0671.537-.2015.806-.403s.537-.403.873-.7388c.269-.2687.605-.6717.941-1.0747v-4.7689z"/></g><path d="m22.4843 26.7327c-1.209-1.2091-2.8882-1.8807-4.6345-1.7464-1.5449.0672-2.9554.806-4.0301 1.8807l-4.09721 4.0972 5.97791 5.9779c1.4105 1.4105 3.7614 1.4105 5.1719 0l5.9779-5.9779zm-5.7764-6.9183c0 .4702 0 .9404-.0672 1.3434 1.0747-.2015 2.1494-.2015 3.2241 0-.0672-.4702-.0672-.8732-.0672-1.3434 0-2.6195 1.0075-5.1047 2.8882-6.9854 1.5449-1.5449 3.4927-2.5524 5.6421-2.821l-10.1423-10.008-10.00796 10.0751c2.08216.2687 4.09726 1.209 5.64206 2.8211 1.8807 1.8135 2.8882 4.2987 2.8882 6.9182zm18.6726 2.5524-5.9108 5.9107-4.03-4.03c-.9404-.9404-1.612-2.0822-1.8135-3.3584-.3359-1.9479.3358-3.8286 1.6791-5.1719 1.1419-1.1419 2.6196-1.7464 4.2316-1.7464 1.209 0 2.3509.3359 3.3584 1.0075.2686.2015.5373.4031.806.6717 0 0 .9403.9404 1.2762 1.2762.6716.6717 1.209 1.4105 1.3433 2.3509.1343.806 0 1.6792-.403 2.418-.1343.2015-.3358.4702-.5373.6717zm-34.92712-.7389c-.4030053-.7388-.5373392-1.612-.4030042-2.418.1343352-.9403.7388422-1.6792 1.3433542-2.3509.403-.403 1.27618-1.2761 1.27618-1.2761.26867-.2687.53734-.4702.80601-.6717 1.00751-.6717 2.14935-1.0075 3.35837-1.0075 1.61202 0 3.0897.6045 4.23151 1.7463 1.3434 1.3434 1.9479 3.2241 1.6792 5.1719-.2015 1.2762-.8731 2.4852-1.8135 3.3584l-4.03004 4.03-5.84357-5.8435c-.268672-.2015-.470175-.4702-.60451-.7389z" fill="url(#a)"/></svg>