<svg width="24" height="24" viewBox="0 0 24 24" fill="none" xmlns="http://www.w3.org/2000/svg">
<path d="M12 3C7.0295 3 3 7.02943 3 12C3 16.9706 7.0295 21 12 21C16.9705 21 21 16.9706 21 12C21 7.02943 16.9705 3 12 3ZM15.1106 12.4771L10.6106 15.2896C10.5196 15.3464 10.416 15.375 10.3125 15.375C10.2187 15.375 10.1248 15.3517 10.0398 15.3044C9.86095 15.2053 9.75 15.0171 9.75 14.8125V9.1875C9.75 8.98289 9.86095 8.79473 10.0398 8.69559C10.2186 8.59589 10.4372 8.60194 10.6106 8.71043L15.1106 11.5229C15.275 11.6259 15.375 11.8061 15.375 12C15.375 12.1939 15.275 12.3741 15.1106 12.4771Z" fill="#34A853"/>
</svg>
