<svg width="18" height="17" viewBox="0 0 18 17" fill="none" xmlns="http://www.w3.org/2000/svg">
<g clip-path="url(#clip0)">
<path d="M17.0145 5.20404C16.9747 4.3539 16.8286 3.76944 16.6194 3.26299C16.4035 2.72541 16.0714 2.24412 15.6363 1.84401C15.2112 1.43768 14.6965 1.12195 14.1319 0.921957C13.5907 0.72502 12.973 0.587542 12.0697 0.550059C11.1597 0.509401 10.8708 0.5 8.56269 0.5C6.25462 0.5 5.96573 0.509401 5.05908 0.546884C4.1558 0.584367 3.53481 0.721967 2.99684 0.918783C2.42553 1.12195 1.91416 1.43451 1.48905 1.84401C1.05732 2.24412 0.721984 2.72858 0.509365 3.25994C0.300118 3.76944 0.154048 4.35073 0.114222 5.20087C0.071024 6.05736 0.0610352 6.32926 0.0610352 8.50156C0.0610352 10.6739 0.071024 10.9458 0.11085 11.7991C0.150675 12.6492 0.296875 13.2337 0.506121 13.7401C0.721984 14.2777 1.05732 14.759 1.48905 15.1591C1.91416 15.5654 2.42891 15.8812 2.99347 16.0812C3.53481 16.2781 4.15243 16.4156 5.05584 16.4531C5.96235 16.4907 6.25138 16.5 8.55945 16.5C10.8675 16.5 11.1564 16.4907 12.0631 16.4531C12.9663 16.4156 13.5873 16.2781 14.1253 16.0812C15.2678 15.6654 16.1711 14.8153 16.6128 13.7401C16.8219 13.2306 16.9681 12.6492 17.0079 11.7991C17.0477 10.9458 17.0577 10.6739 17.0577 8.50156C17.0577 6.32926 17.0544 6.05736 17.0145 5.20404ZM15.4836 11.7366C15.4471 12.518 15.3076 12.9399 15.1914 13.2212C14.9057 13.9183 14.3179 14.4715 13.5773 14.7403C13.2785 14.8497 12.8269 14.981 11.9999 15.0153C11.1032 15.0529 10.8343 15.0622 8.56606 15.0622C6.29782 15.0622 6.02553 15.0529 5.13211 15.0153C4.30187 14.981 3.85354 14.8497 3.55466 14.7403C3.18611 14.6121 2.85064 14.409 2.57835 14.1433C2.29607 13.8838 2.0802 13.5713 1.94399 13.2244C1.82776 12.9431 1.68831 12.518 1.65185 11.7397C1.6119 10.8958 1.60204 10.6426 1.60204 8.50779C1.60204 6.37297 1.6119 6.1167 1.65185 5.27596C1.68831 4.49455 1.82776 4.0726 1.94399 3.79129C2.0802 3.4443 2.29607 3.12869 2.58172 2.87229C2.85726 2.60661 3.18935 2.40345 3.55803 2.27537C3.85692 2.16597 4.30862 2.03472 5.13549 2.00029C6.03215 1.96281 6.3012 1.95341 8.56931 1.95341C10.8409 1.95341 11.1098 1.96281 12.0033 2.00029C12.8335 2.03472 13.2818 2.16597 13.5807 2.27537C13.9493 2.40345 14.2847 2.60661 14.557 2.87229C14.8393 3.13174 15.0552 3.4443 15.1914 3.79129C15.3076 4.0726 15.4471 4.49761 15.4836 5.27596C15.5235 6.11987 15.5335 6.37297 15.5335 8.50779C15.5335 10.6426 15.5235 10.8927 15.4836 11.7366Z" fill="#E5D5BB"/>
<path d="M8.56286 4.39111C6.15192 4.39111 4.1958 6.23205 4.1958 8.50129C4.1958 10.7705 6.15192 12.6115 8.56286 12.6115C10.9739 12.6115 12.9299 10.7705 12.9299 8.50129C12.9299 6.23205 10.9739 4.39111 8.56286 4.39111ZM8.56286 11.1675C6.99877 11.1675 5.73006 9.9735 5.73006 8.50129C5.73006 7.02908 6.99877 5.83512 8.56286 5.83512C10.1271 5.83512 11.3957 7.02908 11.3957 8.50129C11.3957 9.9735 10.1271 11.1675 8.56286 11.1675Z" fill="#E5D5BB"/>
<path d="M14.1222 4.22907C14.1222 4.75896 13.6657 5.18861 13.1025 5.18861C12.5395 5.18861 12.083 4.75896 12.083 4.22907C12.083 3.69906 12.5395 3.26953 13.1025 3.26953C13.6657 3.26953 14.1222 3.69906 14.1222 4.22907Z" fill="#E5D5BB"/>
</g>
<defs>
<clipPath id="clip0">
<rect width="17" height="16" fill="white" transform="translate(0.03125 0.5)"/>
</clipPath>
</defs>
</svg>
